<mxfile host="app.diagrams.net" modified="2024-04-07T13:38:09.858Z" agent="Mozilla/5.0 (X11; Linux x86_64; rv:124.0) Gecko/20100101 Firefox/124.0" etag="I1CJf_LU1LvZR2J4HPbk" version="24.2.2" type="device">
  <diagram name="Page-1" id="r_LP0GS3LjNu5w7JuewL">
    <mxGraphModel dx="4780" dy="2740" grid="1" gridSize="10" guides="1" tooltips="1" connect="1" arrows="1" fold="1" page="1" pageScale="1" pageWidth="850" pageHeight="1100" math="0" shadow="0">
      <root>
        <mxCell id="0" />
        <mxCell id="1" parent="0" />
        <mxCell id="TCsy2gral7Sv24ihn3Ys-1" value="Patients" style="rounded=1;fillColor=#ffe6cc;strokeColor=#d79b00;fontSize=13;" parent="1" vertex="1">
          <mxGeometry x="1145" y="1070" width="120" height="60" as="geometry" />
        </mxCell>
        <mxCell id="TCsy2gral7Sv24ihn3Ys-2" value="Doctors" style="rounded=1;fillColor=#ffe6cc;strokeColor=#d79b00;fontSize=13;" parent="1" vertex="1">
          <mxGeometry x="1390" y="1690" width="120" height="60" as="geometry" />
        </mxCell>
        <mxCell id="TCsy2gral7Sv24ihn3Ys-3" value="Treatments" style="rounded=1;fillColor=#ffe6cc;strokeColor=#d79b00;fontSize=13;" parent="1" vertex="1">
          <mxGeometry x="1910" y="1090" width="120" height="60" as="geometry" />
        </mxCell>
        <mxCell id="TCsy2gral7Sv24ihn3Ys-4" value="ICUs" style="rounded=1;fillColor=#ffe6cc;strokeColor=#d79b00;fontSize=13;" parent="1" vertex="1">
          <mxGeometry x="425" y="290" width="120" height="60" as="geometry" />
        </mxCell>
        <mxCell id="TCsy2gral7Sv24ihn3Ys-5" value="id" style="ellipse;fillColor=#fff2cc;strokeColor=#d6b656;fontSize=13;" parent="1" vertex="1">
          <mxGeometry x="1080" y="1220" width="120" height="60" as="geometry" />
        </mxCell>
        <mxCell id="TCsy2gral7Sv24ihn3Ys-6" value="last_name" style="ellipse;fillColor=#fff2cc;strokeColor=#d6b656;fontSize=13;" parent="1" vertex="1">
          <mxGeometry x="960" y="1106" width="120" height="60" as="geometry" />
        </mxCell>
        <mxCell id="TCsy2gral7Sv24ihn3Ys-7" value="first_name" style="ellipse;fillColor=#fff2cc;strokeColor=#d6b656;fontSize=13;" parent="1" vertex="1">
          <mxGeometry x="1000" y="1170" width="120" height="60" as="geometry" />
        </mxCell>
        <mxCell id="TCsy2gral7Sv24ihn3Ys-8" value="age" style="ellipse;fillColor=#fff2cc;strokeColor=#d6b656;fontSize=13;" parent="1" vertex="1">
          <mxGeometry x="950" y="1040" width="120" height="60" as="geometry" />
        </mxCell>
        <mxCell id="TCsy2gral7Sv24ihn3Ys-9" value="weight" style="ellipse;fillColor=#fff2cc;strokeColor=#d6b656;fontSize=13;" parent="1" vertex="1">
          <mxGeometry x="1020" y="980" width="120" height="60" as="geometry" />
        </mxCell>
        <mxCell id="TCsy2gral7Sv24ihn3Ys-10" value="gender" style="ellipse;fillColor=#fff2cc;strokeColor=#d6b656;fontSize=13;" parent="1" vertex="1">
          <mxGeometry x="1160" y="960" width="120" height="60" as="geometry" />
        </mxCell>
        <mxCell id="TCsy2gral7Sv24ihn3Ys-11" value="occupation" style="ellipse;fillColor=#fff2cc;strokeColor=#d6b656;fontSize=13;" parent="1" vertex="1">
          <mxGeometry x="1310" y="990" width="120" height="60" as="geometry" />
        </mxCell>
        <mxCell id="TCsy2gral7Sv24ihn3Ys-12" value="doctor_id" style="ellipse;fillColor=#fff2cc;strokeColor=#d6b656;fontSize=13;" parent="1" vertex="1">
          <mxGeometry x="1345" y="1060" width="120" height="60" as="geometry" />
        </mxCell>
        <mxCell id="TCsy2gral7Sv24ihn3Ys-13" value="treatment_id" style="ellipse;fillColor=#fff2cc;strokeColor=#d6b656;fontSize=13;" parent="1" vertex="1">
          <mxGeometry x="1320" y="1130" width="120" height="60" as="geometry" />
        </mxCell>
        <mxCell id="TCsy2gral7Sv24ihn3Ys-14" value="room_id" style="ellipse;fillColor=#fff2cc;strokeColor=#d6b656;fontSize=13;" parent="1" vertex="1">
          <mxGeometry x="1275" y="1200" width="120" height="60" as="geometry" />
        </mxCell>
        <mxCell id="TCsy2gral7Sv24ihn3Ys-15" value="" style="endArrow=none;rounded=0;fontSize=13;" parent="1" source="TCsy2gral7Sv24ihn3Ys-7" target="TCsy2gral7Sv24ihn3Ys-1" edge="1">
          <mxGeometry width="50" height="50" relative="1" as="geometry">
            <mxPoint x="1095" y="1200" as="sourcePoint" />
            <mxPoint x="1145" y="1150" as="targetPoint" />
          </mxGeometry>
        </mxCell>
        <mxCell id="TCsy2gral7Sv24ihn3Ys-16" value="" style="endArrow=none;rounded=0;fontSize=13;" parent="1" source="TCsy2gral7Sv24ihn3Ys-6" target="TCsy2gral7Sv24ihn3Ys-1" edge="1">
          <mxGeometry width="50" height="50" relative="1" as="geometry">
            <mxPoint x="1095" y="1160" as="sourcePoint" />
            <mxPoint x="1145" y="1110" as="targetPoint" />
          </mxGeometry>
        </mxCell>
        <mxCell id="TCsy2gral7Sv24ihn3Ys-17" value="" style="endArrow=none;rounded=0;fontSize=13;" parent="1" source="TCsy2gral7Sv24ihn3Ys-8" target="TCsy2gral7Sv24ihn3Ys-1" edge="1">
          <mxGeometry width="50" height="50" relative="1" as="geometry">
            <mxPoint x="1095" y="1160" as="sourcePoint" />
            <mxPoint x="1145" y="1110" as="targetPoint" />
          </mxGeometry>
        </mxCell>
        <mxCell id="TCsy2gral7Sv24ihn3Ys-18" value="" style="endArrow=none;rounded=0;fontSize=13;" parent="1" source="TCsy2gral7Sv24ihn3Ys-9" target="TCsy2gral7Sv24ihn3Ys-1" edge="1">
          <mxGeometry width="50" height="50" relative="1" as="geometry">
            <mxPoint x="1095" y="1080" as="sourcePoint" />
            <mxPoint x="1145" y="1030" as="targetPoint" />
          </mxGeometry>
        </mxCell>
        <mxCell id="TCsy2gral7Sv24ihn3Ys-19" value="" style="endArrow=none;rounded=0;fontSize=13;" parent="1" source="TCsy2gral7Sv24ihn3Ys-1" target="TCsy2gral7Sv24ihn3Ys-10" edge="1">
          <mxGeometry width="50" height="50" relative="1" as="geometry">
            <mxPoint x="1125" y="1120" as="sourcePoint" />
            <mxPoint x="1175" y="1070" as="targetPoint" />
          </mxGeometry>
        </mxCell>
        <mxCell id="TCsy2gral7Sv24ihn3Ys-20" value="" style="endArrow=none;rounded=0;fontSize=13;" parent="1" source="TCsy2gral7Sv24ihn3Ys-1" target="TCsy2gral7Sv24ihn3Ys-11" edge="1">
          <mxGeometry width="50" height="50" relative="1" as="geometry">
            <mxPoint x="1155" y="1130" as="sourcePoint" />
            <mxPoint x="1205" y="1080" as="targetPoint" />
          </mxGeometry>
        </mxCell>
        <mxCell id="TCsy2gral7Sv24ihn3Ys-21" value="" style="endArrow=none;rounded=0;fontSize=13;" parent="1" source="TCsy2gral7Sv24ihn3Ys-1" target="TCsy2gral7Sv24ihn3Ys-5" edge="1">
          <mxGeometry width="50" height="50" relative="1" as="geometry">
            <mxPoint x="1175" y="1150" as="sourcePoint" />
            <mxPoint x="1225" y="1100" as="targetPoint" />
          </mxGeometry>
        </mxCell>
        <mxCell id="TCsy2gral7Sv24ihn3Ys-22" value="" style="endArrow=none;rounded=0;fontSize=13;" parent="1" source="TCsy2gral7Sv24ihn3Ys-1" target="TCsy2gral7Sv24ihn3Ys-12" edge="1">
          <mxGeometry width="50" height="50" relative="1" as="geometry">
            <mxPoint x="1245" y="1170" as="sourcePoint" />
            <mxPoint x="1295" y="1120" as="targetPoint" />
          </mxGeometry>
        </mxCell>
        <mxCell id="TCsy2gral7Sv24ihn3Ys-23" value="" style="endArrow=none;rounded=0;fontSize=13;" parent="1" source="TCsy2gral7Sv24ihn3Ys-1" target="TCsy2gral7Sv24ihn3Ys-13" edge="1">
          <mxGeometry width="50" height="50" relative="1" as="geometry">
            <mxPoint x="1245" y="1170" as="sourcePoint" />
            <mxPoint x="1295" y="1120" as="targetPoint" />
          </mxGeometry>
        </mxCell>
        <mxCell id="TCsy2gral7Sv24ihn3Ys-24" value="" style="endArrow=none;rounded=0;fontSize=13;" parent="1" source="TCsy2gral7Sv24ihn3Ys-1" target="TCsy2gral7Sv24ihn3Ys-14" edge="1">
          <mxGeometry width="50" height="50" relative="1" as="geometry">
            <mxPoint x="1245" y="1170" as="sourcePoint" />
            <mxPoint x="1295" y="1120" as="targetPoint" />
          </mxGeometry>
        </mxCell>
        <mxCell id="TCsy2gral7Sv24ihn3Ys-25" value="id" style="ellipse;fillColor=#fff2cc;strokeColor=#d6b656;fontSize=13;" parent="1" vertex="1">
          <mxGeometry x="1250" y="1760" width="120" height="60" as="geometry" />
        </mxCell>
        <mxCell id="TCsy2gral7Sv24ihn3Ys-26" value="last_name" style="ellipse;fillColor=#fff2cc;strokeColor=#d6b656;fontSize=13;" parent="1" vertex="1">
          <mxGeometry x="1225" y="1620" width="120" height="60" as="geometry" />
        </mxCell>
        <mxCell id="TCsy2gral7Sv24ihn3Ys-27" value="first_name" style="ellipse;fillColor=#fff2cc;strokeColor=#d6b656;fontSize=13;" parent="1" vertex="1">
          <mxGeometry x="1230" y="1690" width="120" height="60" as="geometry" />
        </mxCell>
        <mxCell id="TCsy2gral7Sv24ihn3Ys-28" value="age" style="ellipse;fillColor=#fff2cc;strokeColor=#d6b656;fontSize=13;" parent="1" vertex="1">
          <mxGeometry x="1280" y="1560" width="120" height="60" as="geometry" />
        </mxCell>
        <mxCell id="TCsy2gral7Sv24ihn3Ys-29" value="studies" style="ellipse;fillColor=#fff2cc;strokeColor=#d6b656;fontSize=13;" parent="1" vertex="1">
          <mxGeometry x="1490" y="1600" width="120" height="60" as="geometry" />
        </mxCell>
        <mxCell id="TCsy2gral7Sv24ihn3Ys-30" value="specialization" style="ellipse;fillColor=#fff2cc;strokeColor=#d6b656;fontSize=13;" parent="1" vertex="1">
          <mxGeometry x="1560" y="1655" width="120" height="60" as="geometry" />
        </mxCell>
        <mxCell id="TCsy2gral7Sv24ihn3Ys-31" value="partner_id" style="ellipse;fillColor=#fff2cc;strokeColor=#d6b656;fontSize=13;" parent="1" vertex="1">
          <mxGeometry x="1550" y="1720" width="120" height="60" as="geometry" />
        </mxCell>
        <mxCell id="TCsy2gral7Sv24ihn3Ys-32" value="" style="endArrow=none;rounded=0;fontSize=13;" parent="1" source="TCsy2gral7Sv24ihn3Ys-27" target="TCsy2gral7Sv24ihn3Ys-2" edge="1">
          <mxGeometry width="50" height="50" relative="1" as="geometry">
            <mxPoint x="1270" y="1790" as="sourcePoint" />
            <mxPoint x="1320" y="1740" as="targetPoint" />
          </mxGeometry>
        </mxCell>
        <mxCell id="TCsy2gral7Sv24ihn3Ys-33" value="" style="endArrow=none;rounded=0;fontSize=13;" parent="1" source="TCsy2gral7Sv24ihn3Ys-25" target="TCsy2gral7Sv24ihn3Ys-2" edge="1">
          <mxGeometry width="50" height="50" relative="1" as="geometry">
            <mxPoint x="1270" y="1790" as="sourcePoint" />
            <mxPoint x="1320" y="1740" as="targetPoint" />
          </mxGeometry>
        </mxCell>
        <mxCell id="TCsy2gral7Sv24ihn3Ys-34" value="" style="endArrow=none;rounded=0;fontSize=13;" parent="1" source="TCsy2gral7Sv24ihn3Ys-2" target="TCsy2gral7Sv24ihn3Ys-29" edge="1">
          <mxGeometry width="50" height="50" relative="1" as="geometry">
            <mxPoint x="1520" y="1670" as="sourcePoint" />
            <mxPoint x="1470" y="1690" as="targetPoint" />
          </mxGeometry>
        </mxCell>
        <mxCell id="TCsy2gral7Sv24ihn3Ys-35" value="" style="endArrow=none;rounded=0;fontSize=13;" parent="1" source="TCsy2gral7Sv24ihn3Ys-2" target="TCsy2gral7Sv24ihn3Ys-28" edge="1">
          <mxGeometry width="50" height="50" relative="1" as="geometry">
            <mxPoint x="1430" y="1700" as="sourcePoint" />
            <mxPoint x="1470" y="1690" as="targetPoint" />
          </mxGeometry>
        </mxCell>
        <mxCell id="TCsy2gral7Sv24ihn3Ys-36" value="" style="endArrow=none;rounded=0;fontSize=13;" parent="1" source="TCsy2gral7Sv24ihn3Ys-2" target="TCsy2gral7Sv24ihn3Ys-26" edge="1">
          <mxGeometry width="50" height="50" relative="1" as="geometry">
            <mxPoint x="1420" y="1740" as="sourcePoint" />
            <mxPoint x="1470" y="1690" as="targetPoint" />
          </mxGeometry>
        </mxCell>
        <mxCell id="TCsy2gral7Sv24ihn3Ys-37" value="" style="endArrow=none;rounded=0;fontSize=13;" parent="1" source="TCsy2gral7Sv24ihn3Ys-31" target="TCsy2gral7Sv24ihn3Ys-2" edge="1">
          <mxGeometry width="50" height="50" relative="1" as="geometry">
            <mxPoint x="1560" y="1770" as="sourcePoint" />
            <mxPoint x="1610" y="1720" as="targetPoint" />
          </mxGeometry>
        </mxCell>
        <mxCell id="TCsy2gral7Sv24ihn3Ys-38" value="" style="endArrow=none;rounded=0;fontSize=13;" parent="1" source="TCsy2gral7Sv24ihn3Ys-2" target="TCsy2gral7Sv24ihn3Ys-30" edge="1">
          <mxGeometry width="50" height="50" relative="1" as="geometry">
            <mxPoint x="1560" y="1770" as="sourcePoint" />
            <mxPoint x="1570" y="1720" as="targetPoint" />
          </mxGeometry>
        </mxCell>
        <mxCell id="TCsy2gral7Sv24ihn3Ys-39" value="id" style="ellipse;fillColor=#fff2cc;strokeColor=#d6b656;fontSize=13;" parent="1" vertex="1">
          <mxGeometry x="1770" y="1100" width="120" height="60" as="geometry" />
        </mxCell>
        <mxCell id="TCsy2gral7Sv24ihn3Ys-40" value="name" style="ellipse;fillColor=#fff2cc;strokeColor=#d6b656;fontSize=13;" parent="1" vertex="1">
          <mxGeometry x="1835" y="1010" width="120" height="60" as="geometry" />
        </mxCell>
        <mxCell id="TCsy2gral7Sv24ihn3Ys-42" value="duration" style="ellipse;fillColor=#fff2cc;strokeColor=#d6b656;fontSize=13;" parent="1" vertex="1">
          <mxGeometry x="1990" y="1010" width="120" height="60" as="geometry" />
        </mxCell>
        <mxCell id="TCsy2gral7Sv24ihn3Ys-43" value="" style="endArrow=none;rounded=0;fontSize=13;" parent="1" source="TCsy2gral7Sv24ihn3Ys-3" target="TCsy2gral7Sv24ihn3Ys-39" edge="1">
          <mxGeometry width="50" height="50" relative="1" as="geometry">
            <mxPoint x="1920" y="1000" as="sourcePoint" />
            <mxPoint x="1880" y="1130" as="targetPoint" />
          </mxGeometry>
        </mxCell>
        <mxCell id="TCsy2gral7Sv24ihn3Ys-44" value="medicine_id" style="ellipse;fillColor=#fff2cc;strokeColor=#d6b656;fontSize=13;" parent="1" vertex="1">
          <mxGeometry x="2050" y="1090" width="120" height="60" as="geometry" />
        </mxCell>
        <mxCell id="TCsy2gral7Sv24ihn3Ys-45" value="" style="endArrow=none;rounded=0;fontSize=13;" parent="1" source="TCsy2gral7Sv24ihn3Ys-3" target="TCsy2gral7Sv24ihn3Ys-40" edge="1">
          <mxGeometry width="50" height="50" relative="1" as="geometry">
            <mxPoint x="2040" y="1090" as="sourcePoint" />
            <mxPoint x="2090" y="1040" as="targetPoint" />
          </mxGeometry>
        </mxCell>
        <mxCell id="TCsy2gral7Sv24ihn3Ys-46" value="" style="endArrow=none;rounded=0;fontSize=13;" parent="1" source="TCsy2gral7Sv24ihn3Ys-3" target="TCsy2gral7Sv24ihn3Ys-42" edge="1">
          <mxGeometry width="50" height="50" relative="1" as="geometry">
            <mxPoint x="2040" y="1090" as="sourcePoint" />
            <mxPoint x="2090" y="1040" as="targetPoint" />
          </mxGeometry>
        </mxCell>
        <mxCell id="TCsy2gral7Sv24ihn3Ys-47" value="" style="endArrow=none;rounded=0;fontSize=13;" parent="1" source="TCsy2gral7Sv24ihn3Ys-3" target="TCsy2gral7Sv24ihn3Ys-44" edge="1">
          <mxGeometry width="50" height="50" relative="1" as="geometry">
            <mxPoint x="2050" y="1080" as="sourcePoint" />
            <mxPoint x="2100" y="1030" as="targetPoint" />
          </mxGeometry>
        </mxCell>
        <mxCell id="TCsy2gral7Sv24ihn3Ys-48" value="Rooms" style="rounded=1;fillColor=#ffe6cc;strokeColor=#d79b00;fontSize=13;" parent="1" vertex="1">
          <mxGeometry x="785" y="620" width="120" height="60" as="geometry" />
        </mxCell>
        <mxCell id="TCsy2gral7Sv24ihn3Ys-49" value="id" style="ellipse;fillColor=#fff2cc;strokeColor=#d6b656;fontSize=13;" parent="1" vertex="1">
          <mxGeometry x="660" y="690" width="120" height="60" as="geometry" />
        </mxCell>
        <mxCell id="TCsy2gral7Sv24ihn3Ys-50" value="type" style="ellipse;fillColor=#fff2cc;strokeColor=#d6b656;fontSize=13;" parent="1" vertex="1">
          <mxGeometry x="630" y="570" width="120" height="60" as="geometry" />
        </mxCell>
        <mxCell id="TCsy2gral7Sv24ihn3Ys-51" value="" style="endArrow=none;rounded=0;exitX=0;exitY=0.75;exitDx=0;exitDy=0;fontSize=13;" parent="1" source="TCsy2gral7Sv24ihn3Ys-48" target="TCsy2gral7Sv24ihn3Ys-49" edge="1">
          <mxGeometry width="50" height="50" relative="1" as="geometry">
            <mxPoint x="1030" y="570" as="sourcePoint" />
            <mxPoint x="1080" y="520" as="targetPoint" />
          </mxGeometry>
        </mxCell>
        <mxCell id="TCsy2gral7Sv24ihn3Ys-52" value="" style="endArrow=none;rounded=0;exitX=0;exitY=0.25;exitDx=0;exitDy=0;fontSize=13;" parent="1" source="TCsy2gral7Sv24ihn3Ys-48" target="TCsy2gral7Sv24ihn3Ys-50" edge="1">
          <mxGeometry width="50" height="50" relative="1" as="geometry">
            <mxPoint x="1030" y="570" as="sourcePoint" />
            <mxPoint x="1080" y="520" as="targetPoint" />
          </mxGeometry>
        </mxCell>
        <mxCell id="TCsy2gral7Sv24ihn3Ys-53" value="number" style="ellipse;fillColor=#fff2cc;strokeColor=#d6b656;fontSize=13;" parent="1" vertex="1">
          <mxGeometry x="285" y="280" width="120" height="60" as="geometry" />
        </mxCell>
        <mxCell id="TCsy2gral7Sv24ihn3Ys-54" value="floor" style="ellipse;fillColor=#fff2cc;strokeColor=#d6b656;fontSize=13;" parent="1" vertex="1">
          <mxGeometry x="445" y="210" width="120" height="60" as="geometry" />
        </mxCell>
        <mxCell id="TCsy2gral7Sv24ihn3Ys-55" value="type" style="ellipse;fillColor=#fff2cc;strokeColor=#d6b656;fontSize=13;" parent="1" vertex="1">
          <mxGeometry x="555" y="325" width="120" height="60" as="geometry" />
        </mxCell>
        <mxCell id="TCsy2gral7Sv24ihn3Ys-56" value="" style="endArrow=none;rounded=0;fontSize=13;" parent="1" source="TCsy2gral7Sv24ihn3Ys-53" target="TCsy2gral7Sv24ihn3Ys-4" edge="1">
          <mxGeometry width="50" height="50" relative="1" as="geometry">
            <mxPoint x="365" y="260" as="sourcePoint" />
            <mxPoint x="415" y="210" as="targetPoint" />
          </mxGeometry>
        </mxCell>
        <mxCell id="TCsy2gral7Sv24ihn3Ys-58" value="" style="endArrow=none;rounded=0;fontSize=13;" parent="1" source="TCsy2gral7Sv24ihn3Ys-54" target="TCsy2gral7Sv24ihn3Ys-4" edge="1">
          <mxGeometry width="50" height="50" relative="1" as="geometry">
            <mxPoint x="365" y="260" as="sourcePoint" />
            <mxPoint x="415" y="210" as="targetPoint" />
          </mxGeometry>
        </mxCell>
        <mxCell id="TCsy2gral7Sv24ihn3Ys-59" value="OperationTheaters" style="rounded=1;fillColor=#ffe6cc;strokeColor=#d79b00;fontSize=13;" parent="1" vertex="1">
          <mxGeometry x="1150" y="350" width="120" height="60" as="geometry" />
        </mxCell>
        <mxCell id="TCsy2gral7Sv24ihn3Ys-60" value="number" style="ellipse;fillColor=#fff2cc;strokeColor=#d6b656;fontSize=13;" parent="1" vertex="1">
          <mxGeometry x="1020" y="385" width="120" height="60" as="geometry" />
        </mxCell>
        <mxCell id="TCsy2gral7Sv24ihn3Ys-61" value="floor" style="ellipse;fillColor=#fff2cc;strokeColor=#d6b656;fontSize=13;" parent="1" vertex="1">
          <mxGeometry x="1080" y="280" width="120" height="60" as="geometry" />
        </mxCell>
        <mxCell id="TCsy2gral7Sv24ihn3Ys-62" value="specialization" style="ellipse;fillColor=#fff2cc;strokeColor=#d6b656;fontSize=13;" parent="1" vertex="1">
          <mxGeometry x="1280" y="385" width="120" height="60" as="geometry" />
        </mxCell>
        <mxCell id="TCsy2gral7Sv24ihn3Ys-63" value="" style="endArrow=none;rounded=0;fontSize=13;" parent="1" source="TCsy2gral7Sv24ihn3Ys-60" target="TCsy2gral7Sv24ihn3Ys-59" edge="1">
          <mxGeometry width="50" height="50" relative="1" as="geometry">
            <mxPoint x="1090" y="320" as="sourcePoint" />
            <mxPoint x="1140" y="270" as="targetPoint" />
          </mxGeometry>
        </mxCell>
        <mxCell id="TCsy2gral7Sv24ihn3Ys-64" value="" style="endArrow=none;rounded=0;fontSize=13;" parent="1" source="TCsy2gral7Sv24ihn3Ys-59" target="TCsy2gral7Sv24ihn3Ys-62" edge="1">
          <mxGeometry width="50" height="50" relative="1" as="geometry">
            <mxPoint x="1090" y="320" as="sourcePoint" />
            <mxPoint x="1140" y="270" as="targetPoint" />
          </mxGeometry>
        </mxCell>
        <mxCell id="TCsy2gral7Sv24ihn3Ys-65" value="" style="endArrow=none;rounded=0;fontSize=13;" parent="1" source="TCsy2gral7Sv24ihn3Ys-61" target="TCsy2gral7Sv24ihn3Ys-59" edge="1">
          <mxGeometry width="50" height="50" relative="1" as="geometry">
            <mxPoint x="1090" y="320" as="sourcePoint" />
            <mxPoint x="1140" y="270" as="targetPoint" />
          </mxGeometry>
        </mxCell>
        <mxCell id="TCsy2gral7Sv24ihn3Ys-66" value="Nurses" style="rounded=1;fillColor=#ffe6cc;strokeColor=#d79b00;fontSize=13;" parent="1" vertex="1">
          <mxGeometry x="1380" y="2690" width="120" height="60" as="geometry" />
        </mxCell>
        <mxCell id="TCsy2gral7Sv24ihn3Ys-67" value="id" style="ellipse;fillColor=#fff2cc;strokeColor=#d6b656;fontSize=13;" parent="1" vertex="1">
          <mxGeometry x="1280" y="2770" width="120" height="60" as="geometry" />
        </mxCell>
        <mxCell id="TCsy2gral7Sv24ihn3Ys-68" value="last_name" style="ellipse;fillColor=#fff2cc;strokeColor=#d6b656;fontSize=13;" parent="1" vertex="1">
          <mxGeometry x="1240" y="2640" width="120" height="60" as="geometry" />
        </mxCell>
        <mxCell id="TCsy2gral7Sv24ihn3Ys-69" value="first_name" style="ellipse;fillColor=#fff2cc;strokeColor=#d6b656;fontSize=13;" parent="1" vertex="1">
          <mxGeometry x="1215" y="2710" width="120" height="60" as="geometry" />
        </mxCell>
        <mxCell id="TCsy2gral7Sv24ihn3Ys-70" value="age" style="ellipse;fillColor=#fff2cc;strokeColor=#d6b656;fontSize=13;" parent="1" vertex="1">
          <mxGeometry x="1345" y="2600" width="120" height="60" as="geometry" />
        </mxCell>
        <mxCell id="TCsy2gral7Sv24ihn3Ys-71" value="gender" style="ellipse;fillColor=#fff2cc;strokeColor=#d6b656;fontSize=13;" parent="1" vertex="1">
          <mxGeometry x="1510" y="2620" width="120" height="60" as="geometry" />
        </mxCell>
        <mxCell id="TCsy2gral7Sv24ihn3Ys-72" value="studies" style="ellipse;fillColor=#fff2cc;strokeColor=#d6b656;fontSize=13;" parent="1" vertex="1">
          <mxGeometry x="1530" y="2690" width="120" height="60" as="geometry" />
        </mxCell>
        <mxCell id="TCsy2gral7Sv24ihn3Ys-73" value="floor" style="ellipse;fillColor=#fff2cc;strokeColor=#d6b656;fontSize=13;" parent="1" vertex="1">
          <mxGeometry x="1490" y="2760" width="120" height="60" as="geometry" />
        </mxCell>
        <mxCell id="TCsy2gral7Sv24ihn3Ys-74" value="" style="endArrow=none;rounded=0;fontSize=13;" parent="1" source="TCsy2gral7Sv24ihn3Ys-69" target="TCsy2gral7Sv24ihn3Ys-66" edge="1">
          <mxGeometry width="50" height="50" relative="1" as="geometry">
            <mxPoint x="1260" y="2790" as="sourcePoint" />
            <mxPoint x="1310" y="2740" as="targetPoint" />
          </mxGeometry>
        </mxCell>
        <mxCell id="TCsy2gral7Sv24ihn3Ys-75" value="" style="endArrow=none;rounded=0;fontSize=13;" parent="1" source="TCsy2gral7Sv24ihn3Ys-67" target="TCsy2gral7Sv24ihn3Ys-66" edge="1">
          <mxGeometry width="50" height="50" relative="1" as="geometry">
            <mxPoint x="1260" y="2790" as="sourcePoint" />
            <mxPoint x="1310" y="2740" as="targetPoint" />
          </mxGeometry>
        </mxCell>
        <mxCell id="TCsy2gral7Sv24ihn3Ys-76" value="" style="endArrow=none;rounded=0;fontSize=13;" parent="1" source="TCsy2gral7Sv24ihn3Ys-66" target="TCsy2gral7Sv24ihn3Ys-71" edge="1">
          <mxGeometry width="50" height="50" relative="1" as="geometry">
            <mxPoint x="1510" y="2670" as="sourcePoint" />
            <mxPoint x="1460" y="2690" as="targetPoint" />
          </mxGeometry>
        </mxCell>
        <mxCell id="TCsy2gral7Sv24ihn3Ys-77" value="" style="endArrow=none;rounded=0;fontSize=13;" parent="1" source="TCsy2gral7Sv24ihn3Ys-66" target="TCsy2gral7Sv24ihn3Ys-70" edge="1">
          <mxGeometry width="50" height="50" relative="1" as="geometry">
            <mxPoint x="1410" y="2740" as="sourcePoint" />
            <mxPoint x="1460" y="2690" as="targetPoint" />
          </mxGeometry>
        </mxCell>
        <mxCell id="TCsy2gral7Sv24ihn3Ys-78" value="" style="endArrow=none;rounded=0;fontSize=13;" parent="1" source="TCsy2gral7Sv24ihn3Ys-66" target="TCsy2gral7Sv24ihn3Ys-68" edge="1">
          <mxGeometry width="50" height="50" relative="1" as="geometry">
            <mxPoint x="1410" y="2740" as="sourcePoint" />
            <mxPoint x="1460" y="2690" as="targetPoint" />
          </mxGeometry>
        </mxCell>
        <mxCell id="TCsy2gral7Sv24ihn3Ys-79" value="" style="endArrow=none;rounded=0;fontSize=13;" parent="1" source="TCsy2gral7Sv24ihn3Ys-73" target="TCsy2gral7Sv24ihn3Ys-66" edge="1">
          <mxGeometry width="50" height="50" relative="1" as="geometry">
            <mxPoint x="1550" y="2770" as="sourcePoint" />
            <mxPoint x="1600" y="2720" as="targetPoint" />
          </mxGeometry>
        </mxCell>
        <mxCell id="TCsy2gral7Sv24ihn3Ys-80" value="" style="endArrow=none;rounded=0;fontSize=13;" parent="1" source="TCsy2gral7Sv24ihn3Ys-66" target="TCsy2gral7Sv24ihn3Ys-72" edge="1">
          <mxGeometry width="50" height="50" relative="1" as="geometry">
            <mxPoint x="1550" y="2770" as="sourcePoint" />
            <mxPoint x="1560" y="2720" as="targetPoint" />
          </mxGeometry>
        </mxCell>
        <mxCell id="TCsy2gral7Sv24ihn3Ys-81" value="Watchmen" style="rounded=1;fillColor=#ffe6cc;strokeColor=#d79b00;fontSize=13;" parent="1" vertex="1">
          <mxGeometry x="2670" y="2500" width="120" height="60" as="geometry" />
        </mxCell>
        <mxCell id="TCsy2gral7Sv24ihn3Ys-82" value="id" style="ellipse;fillColor=#fff2cc;strokeColor=#d6b656;fontSize=13;" parent="1" vertex="1">
          <mxGeometry x="2580" y="2570" width="120" height="60" as="geometry" />
        </mxCell>
        <mxCell id="TCsy2gral7Sv24ihn3Ys-83" value="last_name" style="ellipse;fillColor=#fff2cc;strokeColor=#d6b656;fontSize=13;" parent="1" vertex="1">
          <mxGeometry x="2590" y="2430" width="120" height="60" as="geometry" />
        </mxCell>
        <mxCell id="TCsy2gral7Sv24ihn3Ys-84" value="first_name" style="ellipse;fillColor=#fff2cc;strokeColor=#d6b656;fontSize=13;" parent="1" vertex="1">
          <mxGeometry x="2530" y="2500" width="120" height="60" as="geometry" />
        </mxCell>
        <mxCell id="TCsy2gral7Sv24ihn3Ys-85" value="age" style="ellipse;fillColor=#fff2cc;strokeColor=#d6b656;fontSize=13;" parent="1" vertex="1">
          <mxGeometry x="2720" y="2420" width="120" height="60" as="geometry" />
        </mxCell>
        <mxCell id="TCsy2gral7Sv24ihn3Ys-86" value="gender" style="ellipse;fillColor=#fff2cc;strokeColor=#d6b656;fontSize=13;" parent="1" vertex="1">
          <mxGeometry x="2820" y="2460" width="120" height="60" as="geometry" />
        </mxCell>
        <mxCell id="TCsy2gral7Sv24ihn3Ys-87" value="assigned_zone" style="ellipse;fillColor=#fff2cc;strokeColor=#d6b656;fontSize=13;" parent="1" vertex="1">
          <mxGeometry x="2800" y="2530" width="120" height="60" as="geometry" />
        </mxCell>
        <mxCell id="TCsy2gral7Sv24ihn3Ys-88" value="" style="endArrow=none;rounded=0;fontSize=13;" parent="1" source="TCsy2gral7Sv24ihn3Ys-84" target="TCsy2gral7Sv24ihn3Ys-81" edge="1">
          <mxGeometry width="50" height="50" relative="1" as="geometry">
            <mxPoint x="2550" y="2600" as="sourcePoint" />
            <mxPoint x="2600" y="2550" as="targetPoint" />
          </mxGeometry>
        </mxCell>
        <mxCell id="TCsy2gral7Sv24ihn3Ys-89" value="" style="endArrow=none;rounded=0;fontSize=13;" parent="1" source="TCsy2gral7Sv24ihn3Ys-82" target="TCsy2gral7Sv24ihn3Ys-81" edge="1">
          <mxGeometry width="50" height="50" relative="1" as="geometry">
            <mxPoint x="2550" y="2600" as="sourcePoint" />
            <mxPoint x="2600" y="2550" as="targetPoint" />
          </mxGeometry>
        </mxCell>
        <mxCell id="TCsy2gral7Sv24ihn3Ys-90" value="" style="endArrow=none;rounded=0;fontSize=13;" parent="1" source="TCsy2gral7Sv24ihn3Ys-81" target="TCsy2gral7Sv24ihn3Ys-85" edge="1">
          <mxGeometry width="50" height="50" relative="1" as="geometry">
            <mxPoint x="2800" y="2480" as="sourcePoint" />
            <mxPoint x="2750" y="2500" as="targetPoint" />
          </mxGeometry>
        </mxCell>
        <mxCell id="TCsy2gral7Sv24ihn3Ys-91" value="" style="endArrow=none;rounded=0;fontSize=13;" parent="1" source="TCsy2gral7Sv24ihn3Ys-81" target="TCsy2gral7Sv24ihn3Ys-83" edge="1">
          <mxGeometry width="50" height="50" relative="1" as="geometry">
            <mxPoint x="2700" y="2550" as="sourcePoint" />
            <mxPoint x="2750" y="2500" as="targetPoint" />
          </mxGeometry>
        </mxCell>
        <mxCell id="TCsy2gral7Sv24ihn3Ys-92" value="" style="endArrow=none;rounded=0;fontSize=13;" parent="1" source="TCsy2gral7Sv24ihn3Ys-87" target="TCsy2gral7Sv24ihn3Ys-81" edge="1">
          <mxGeometry width="50" height="50" relative="1" as="geometry">
            <mxPoint x="2840" y="2580" as="sourcePoint" />
            <mxPoint x="2890" y="2530" as="targetPoint" />
          </mxGeometry>
        </mxCell>
        <mxCell id="TCsy2gral7Sv24ihn3Ys-93" value="" style="endArrow=none;rounded=0;fontSize=13;" parent="1" source="TCsy2gral7Sv24ihn3Ys-81" target="TCsy2gral7Sv24ihn3Ys-86" edge="1">
          <mxGeometry width="50" height="50" relative="1" as="geometry">
            <mxPoint x="2840" y="2580" as="sourcePoint" />
            <mxPoint x="2850" y="2530" as="targetPoint" />
          </mxGeometry>
        </mxCell>
        <mxCell id="TCsy2gral7Sv24ihn3Ys-94" value="Bills" style="rounded=1;fillColor=#ffe6cc;strokeColor=#d79b00;fontSize=13;" parent="1" vertex="1">
          <mxGeometry x="1800" y="585" width="120" height="60" as="geometry" />
        </mxCell>
        <mxCell id="TCsy2gral7Sv24ihn3Ys-95" value="id" style="ellipse;fillColor=#fff2cc;strokeColor=#d6b656;fontSize=13;" parent="1" vertex="1">
          <mxGeometry x="1690" y="645" width="120" height="60" as="geometry" />
        </mxCell>
        <mxCell id="TCsy2gral7Sv24ihn3Ys-96" value="name" style="ellipse;fillColor=#fff2cc;strokeColor=#d6b656;fontSize=13;" parent="1" vertex="1">
          <mxGeometry x="1670" y="545" width="120" height="60" as="geometry" />
        </mxCell>
        <mxCell id="TCsy2gral7Sv24ihn3Ys-97" value="sum" style="ellipse;fillColor=#fff2cc;strokeColor=#d6b656;fontSize=13;" parent="1" vertex="1">
          <mxGeometry x="1800" y="495" width="120" height="60" as="geometry" />
        </mxCell>
        <mxCell id="TCsy2gral7Sv24ihn3Ys-98" value="state" style="ellipse;fillColor=#fff2cc;strokeColor=#d6b656;fontSize=13;" parent="1" vertex="1">
          <mxGeometry x="1926" y="545" width="120" height="60" as="geometry" />
        </mxCell>
        <mxCell id="TCsy2gral7Sv24ihn3Ys-99" value="patient_id" style="ellipse;fillColor=#fff2cc;strokeColor=#d6b656;fontSize=13;" parent="1" vertex="1">
          <mxGeometry x="1910" y="645" width="120" height="60" as="geometry" />
        </mxCell>
        <mxCell id="TCsy2gral7Sv24ihn3Ys-100" value="" style="endArrow=none;rounded=0;fontSize=13;" parent="1" source="TCsy2gral7Sv24ihn3Ys-97" target="TCsy2gral7Sv24ihn3Ys-94" edge="1">
          <mxGeometry width="50" height="50" relative="1" as="geometry">
            <mxPoint x="1680" y="685" as="sourcePoint" />
            <mxPoint x="1730" y="635" as="targetPoint" />
          </mxGeometry>
        </mxCell>
        <mxCell id="TCsy2gral7Sv24ihn3Ys-101" value="" style="endArrow=none;rounded=0;fontSize=13;" parent="1" source="TCsy2gral7Sv24ihn3Ys-95" target="TCsy2gral7Sv24ihn3Ys-94" edge="1">
          <mxGeometry width="50" height="50" relative="1" as="geometry">
            <mxPoint x="1680" y="685" as="sourcePoint" />
            <mxPoint x="1730" y="635" as="targetPoint" />
          </mxGeometry>
        </mxCell>
        <mxCell id="TCsy2gral7Sv24ihn3Ys-102" value="" style="endArrow=none;rounded=0;fontSize=13;" parent="1" source="TCsy2gral7Sv24ihn3Ys-94" target="TCsy2gral7Sv24ihn3Ys-98" edge="1">
          <mxGeometry width="50" height="50" relative="1" as="geometry">
            <mxPoint x="1930" y="565" as="sourcePoint" />
            <mxPoint x="1880" y="585" as="targetPoint" />
          </mxGeometry>
        </mxCell>
        <mxCell id="TCsy2gral7Sv24ihn3Ys-103" value="" style="endArrow=none;rounded=0;fontSize=13;" parent="1" source="TCsy2gral7Sv24ihn3Ys-94" target="TCsy2gral7Sv24ihn3Ys-96" edge="1">
          <mxGeometry width="50" height="50" relative="1" as="geometry">
            <mxPoint x="1830" y="635" as="sourcePoint" />
            <mxPoint x="1880" y="585" as="targetPoint" />
          </mxGeometry>
        </mxCell>
        <mxCell id="TCsy2gral7Sv24ihn3Ys-104" value="" style="endArrow=none;rounded=0;fontSize=13;" parent="1" source="TCsy2gral7Sv24ihn3Ys-99" target="TCsy2gral7Sv24ihn3Ys-94" edge="1">
          <mxGeometry width="50" height="50" relative="1" as="geometry">
            <mxPoint x="1970" y="665" as="sourcePoint" />
            <mxPoint x="2020" y="615" as="targetPoint" />
          </mxGeometry>
        </mxCell>
        <mxCell id="TCsy2gral7Sv24ihn3Ys-105" value="Medicines" style="rounded=1;fillColor=#ffe6cc;strokeColor=#d79b00;fontSize=13;" parent="1" vertex="1">
          <mxGeometry x="2730" y="1040" width="120" height="60" as="geometry" />
        </mxCell>
        <mxCell id="TCsy2gral7Sv24ihn3Ys-106" value="id" style="ellipse;fillColor=#fff2cc;strokeColor=#d6b656;fontSize=13;" parent="1" vertex="1">
          <mxGeometry x="2600" y="1100" width="120" height="60" as="geometry" />
        </mxCell>
        <mxCell id="TCsy2gral7Sv24ihn3Ys-107" value="name" style="ellipse;fillColor=#fff2cc;strokeColor=#d6b656;fontSize=13;" parent="1" vertex="1">
          <mxGeometry x="2600" y="990" width="120" height="60" as="geometry" />
        </mxCell>
        <mxCell id="TCsy2gral7Sv24ihn3Ys-108" value="expiration_date" style="ellipse;fillColor=#fff2cc;strokeColor=#d6b656;fontSize=13;" parent="1" vertex="1">
          <mxGeometry x="2740" y="950" width="120" height="60" as="geometry" />
        </mxCell>
        <mxCell id="TCsy2gral7Sv24ihn3Ys-109" value="provider" style="ellipse;fillColor=#fff2cc;strokeColor=#d6b656;fontSize=13;" parent="1" vertex="1">
          <mxGeometry x="2850" y="990" width="120" height="60" as="geometry" />
        </mxCell>
        <mxCell id="TCsy2gral7Sv24ihn3Ys-110" value="" style="endArrow=none;rounded=0;fontSize=13;" parent="1" source="TCsy2gral7Sv24ihn3Ys-108" target="TCsy2gral7Sv24ihn3Ys-105" edge="1">
          <mxGeometry width="50" height="50" relative="1" as="geometry">
            <mxPoint x="2610" y="1140" as="sourcePoint" />
            <mxPoint x="2660" y="1090" as="targetPoint" />
          </mxGeometry>
        </mxCell>
        <mxCell id="TCsy2gral7Sv24ihn3Ys-111" value="" style="endArrow=none;rounded=0;fontSize=13;" parent="1" source="TCsy2gral7Sv24ihn3Ys-106" target="TCsy2gral7Sv24ihn3Ys-105" edge="1">
          <mxGeometry width="50" height="50" relative="1" as="geometry">
            <mxPoint x="2610" y="1140" as="sourcePoint" />
            <mxPoint x="2660" y="1090" as="targetPoint" />
          </mxGeometry>
        </mxCell>
        <mxCell id="TCsy2gral7Sv24ihn3Ys-112" value="" style="endArrow=none;rounded=0;fontSize=13;" parent="1" source="TCsy2gral7Sv24ihn3Ys-105" target="TCsy2gral7Sv24ihn3Ys-109" edge="1">
          <mxGeometry width="50" height="50" relative="1" as="geometry">
            <mxPoint x="2860" y="1020" as="sourcePoint" />
            <mxPoint x="2810" y="1040" as="targetPoint" />
          </mxGeometry>
        </mxCell>
        <mxCell id="TCsy2gral7Sv24ihn3Ys-113" value="" style="endArrow=none;rounded=0;fontSize=13;" parent="1" source="TCsy2gral7Sv24ihn3Ys-105" target="TCsy2gral7Sv24ihn3Ys-107" edge="1">
          <mxGeometry width="50" height="50" relative="1" as="geometry">
            <mxPoint x="2760" y="1090" as="sourcePoint" />
            <mxPoint x="2810" y="1040" as="targetPoint" />
          </mxGeometry>
        </mxCell>
        <mxCell id="TCsy2gral7Sv24ihn3Ys-114" value="Apprentices" style="rounded=1;fillColor=#ffe6cc;strokeColor=#d79b00;fontSize=13;" parent="1" vertex="1">
          <mxGeometry x="830" y="1980" width="120" height="60" as="geometry" />
        </mxCell>
        <mxCell id="TCsy2gral7Sv24ihn3Ys-115" value="id" style="ellipse;fillColor=#fff2cc;strokeColor=#d6b656;fontSize=13;" parent="1" vertex="1">
          <mxGeometry x="710" y="2040" width="120" height="60" as="geometry" />
        </mxCell>
        <mxCell id="TCsy2gral7Sv24ihn3Ys-116" value="last_name" style="ellipse;fillColor=#fff2cc;strokeColor=#d6b656;fontSize=13;" parent="1" vertex="1">
          <mxGeometry x="640" y="1900" width="120" height="60" as="geometry" />
        </mxCell>
        <mxCell id="TCsy2gral7Sv24ihn3Ys-117" value="first_name" style="ellipse;fillColor=#fff2cc;strokeColor=#d6b656;fontSize=13;" parent="1" vertex="1">
          <mxGeometry x="660" y="1970" width="120" height="60" as="geometry" />
        </mxCell>
        <mxCell id="TCsy2gral7Sv24ihn3Ys-118" value="age" style="ellipse;fillColor=#fff2cc;strokeColor=#d6b656;fontSize=13;" parent="1" vertex="1">
          <mxGeometry x="724" y="1850" width="120" height="60" as="geometry" />
        </mxCell>
        <mxCell id="TCsy2gral7Sv24ihn3Ys-119" value="gender" style="ellipse;fillColor=#fff2cc;strokeColor=#d6b656;fontSize=13;" parent="1" vertex="1">
          <mxGeometry x="814" y="1800" width="120" height="60" as="geometry" />
        </mxCell>
        <mxCell id="TCsy2gral7Sv24ihn3Ys-120" value="university" style="ellipse;fillColor=#fff2cc;strokeColor=#d6b656;fontSize=13;" parent="1" vertex="1">
          <mxGeometry x="910" y="1850" width="120" height="60" as="geometry" />
        </mxCell>
        <mxCell id="TCsy2gral7Sv24ihn3Ys-121" value="study_year" style="ellipse;fillColor=#fff2cc;strokeColor=#d6b656;fontSize=13;" parent="1" vertex="1">
          <mxGeometry x="990" y="1900" width="120" height="60" as="geometry" />
        </mxCell>
        <mxCell id="TCsy2gral7Sv24ihn3Ys-122" value="specialization" style="ellipse;fillColor=#fff2cc;strokeColor=#d6b656;fontSize=13;" parent="1" vertex="1">
          <mxGeometry x="990" y="1970" width="120" height="60" as="geometry" />
        </mxCell>
        <mxCell id="TCsy2gral7Sv24ihn3Ys-123" value="doctor_id" style="ellipse;fillColor=#fff2cc;strokeColor=#d6b656;fontSize=13;" parent="1" vertex="1">
          <mxGeometry x="950" y="2040" width="120" height="60" as="geometry" />
        </mxCell>
        <mxCell id="TCsy2gral7Sv24ihn3Ys-124" value="" style="endArrow=none;rounded=0;fontSize=13;" parent="1" source="TCsy2gral7Sv24ihn3Ys-117" target="TCsy2gral7Sv24ihn3Ys-114" edge="1">
          <mxGeometry width="50" height="50" relative="1" as="geometry">
            <mxPoint x="720.0000000000446" y="2010" as="sourcePoint" />
            <mxPoint x="830" y="2060" as="targetPoint" />
          </mxGeometry>
        </mxCell>
        <mxCell id="TCsy2gral7Sv24ihn3Ys-125" value="" style="endArrow=none;rounded=0;fontSize=13;" parent="1" source="TCsy2gral7Sv24ihn3Ys-116" target="TCsy2gral7Sv24ihn3Ys-114" edge="1">
          <mxGeometry width="50" height="50" relative="1" as="geometry">
            <mxPoint x="780" y="2070" as="sourcePoint" />
            <mxPoint x="830" y="2020" as="targetPoint" />
          </mxGeometry>
        </mxCell>
        <mxCell id="TCsy2gral7Sv24ihn3Ys-126" value="" style="endArrow=none;rounded=0;fontSize=13;" parent="1" source="TCsy2gral7Sv24ihn3Ys-118" edge="1" target="TCsy2gral7Sv24ihn3Ys-114">
          <mxGeometry width="50" height="50" relative="1" as="geometry">
            <mxPoint x="780" y="2070" as="sourcePoint" />
            <mxPoint x="860" y="1980" as="targetPoint" />
          </mxGeometry>
        </mxCell>
        <mxCell id="TCsy2gral7Sv24ihn3Ys-127" value="" style="endArrow=none;rounded=0;fontSize=13;" parent="1" source="TCsy2gral7Sv24ihn3Ys-119" target="TCsy2gral7Sv24ihn3Ys-114" edge="1">
          <mxGeometry width="50" height="50" relative="1" as="geometry">
            <mxPoint x="780" y="1990" as="sourcePoint" />
            <mxPoint x="830" y="1940" as="targetPoint" />
          </mxGeometry>
        </mxCell>
        <mxCell id="TCsy2gral7Sv24ihn3Ys-128" value="" style="endArrow=none;rounded=0;fontSize=13;" parent="1" source="TCsy2gral7Sv24ihn3Ys-114" target="TCsy2gral7Sv24ihn3Ys-120" edge="1">
          <mxGeometry width="50" height="50" relative="1" as="geometry">
            <mxPoint x="810" y="2030" as="sourcePoint" />
            <mxPoint x="860" y="1980" as="targetPoint" />
          </mxGeometry>
        </mxCell>
        <mxCell id="TCsy2gral7Sv24ihn3Ys-129" value="" style="endArrow=none;rounded=0;fontSize=13;" parent="1" source="TCsy2gral7Sv24ihn3Ys-114" target="TCsy2gral7Sv24ihn3Ys-121" edge="1">
          <mxGeometry width="50" height="50" relative="1" as="geometry">
            <mxPoint x="840" y="2040" as="sourcePoint" />
            <mxPoint x="890" y="1990" as="targetPoint" />
          </mxGeometry>
        </mxCell>
        <mxCell id="TCsy2gral7Sv24ihn3Ys-130" value="" style="endArrow=none;rounded=0;fontSize=13;" parent="1" source="TCsy2gral7Sv24ihn3Ys-114" target="TCsy2gral7Sv24ihn3Ys-115" edge="1">
          <mxGeometry width="50" height="50" relative="1" as="geometry">
            <mxPoint x="860" y="2060" as="sourcePoint" />
            <mxPoint x="910" y="2010" as="targetPoint" />
          </mxGeometry>
        </mxCell>
        <mxCell id="TCsy2gral7Sv24ihn3Ys-131" value="" style="endArrow=none;rounded=0;fontSize=13;" parent="1" source="TCsy2gral7Sv24ihn3Ys-114" target="TCsy2gral7Sv24ihn3Ys-122" edge="1">
          <mxGeometry width="50" height="50" relative="1" as="geometry">
            <mxPoint x="930" y="2080" as="sourcePoint" />
            <mxPoint x="980" y="2030" as="targetPoint" />
          </mxGeometry>
        </mxCell>
        <mxCell id="TCsy2gral7Sv24ihn3Ys-132" value="" style="endArrow=none;rounded=0;fontSize=13;" parent="1" source="TCsy2gral7Sv24ihn3Ys-114" target="TCsy2gral7Sv24ihn3Ys-123" edge="1">
          <mxGeometry width="50" height="50" relative="1" as="geometry">
            <mxPoint x="930" y="2080" as="sourcePoint" />
            <mxPoint x="980" y="2030" as="targetPoint" />
          </mxGeometry>
        </mxCell>
        <mxCell id="TCsy2gral7Sv24ihn3Ys-133" value="Shifts" style="rounded=1;fillColor=#ffe6cc;strokeColor=#d79b00;fontSize=13;" parent="1" vertex="1">
          <mxGeometry x="2770" y="2000" width="120" height="60" as="geometry" />
        </mxCell>
        <mxCell id="TCsy2gral7Sv24ihn3Ys-134" value="id" style="ellipse;fillColor=#fff2cc;strokeColor=#d6b656;fontSize=13;" parent="1" vertex="1">
          <mxGeometry x="2630" y="2015" width="120" height="60" as="geometry" />
        </mxCell>
        <mxCell id="TCsy2gral7Sv24ihn3Ys-135" value="begin_time" style="ellipse;fillColor=#fff2cc;strokeColor=#d6b656;fontSize=13;" parent="1" vertex="1">
          <mxGeometry x="2680" y="1925" width="120" height="60" as="geometry" />
        </mxCell>
        <mxCell id="TCsy2gral7Sv24ihn3Ys-136" value="end_time" style="ellipse;fillColor=#fff2cc;strokeColor=#d6b656;fontSize=13;" parent="1" vertex="1">
          <mxGeometry x="2840" y="1925" width="120" height="60" as="geometry" />
        </mxCell>
        <mxCell id="TCsy2gral7Sv24ihn3Ys-137" value="" style="endArrow=none;rounded=0;fontSize=13;" parent="1" source="TCsy2gral7Sv24ihn3Ys-133" target="TCsy2gral7Sv24ihn3Ys-134" edge="1">
          <mxGeometry width="50" height="50" relative="1" as="geometry">
            <mxPoint x="2780" y="1910" as="sourcePoint" />
            <mxPoint x="2740" y="2040" as="targetPoint" />
          </mxGeometry>
        </mxCell>
        <mxCell id="TCsy2gral7Sv24ihn3Ys-138" value="description" style="ellipse;fillColor=#fff2cc;strokeColor=#d6b656;fontSize=13;" parent="1" vertex="1">
          <mxGeometry x="2910" y="2000" width="120" height="60" as="geometry" />
        </mxCell>
        <mxCell id="TCsy2gral7Sv24ihn3Ys-139" value="" style="endArrow=none;rounded=0;fontSize=13;" parent="1" source="TCsy2gral7Sv24ihn3Ys-133" target="TCsy2gral7Sv24ihn3Ys-135" edge="1">
          <mxGeometry width="50" height="50" relative="1" as="geometry">
            <mxPoint x="2900" y="2000" as="sourcePoint" />
            <mxPoint x="2950" y="1950" as="targetPoint" />
          </mxGeometry>
        </mxCell>
        <mxCell id="TCsy2gral7Sv24ihn3Ys-140" value="" style="endArrow=none;rounded=0;fontSize=13;" parent="1" source="TCsy2gral7Sv24ihn3Ys-133" target="TCsy2gral7Sv24ihn3Ys-136" edge="1">
          <mxGeometry width="50" height="50" relative="1" as="geometry">
            <mxPoint x="2900" y="2000" as="sourcePoint" />
            <mxPoint x="2950" y="1950" as="targetPoint" />
          </mxGeometry>
        </mxCell>
        <mxCell id="TCsy2gral7Sv24ihn3Ys-141" value="" style="endArrow=none;rounded=0;fontSize=13;" parent="1" source="TCsy2gral7Sv24ihn3Ys-133" target="TCsy2gral7Sv24ihn3Ys-138" edge="1">
          <mxGeometry width="50" height="50" relative="1" as="geometry">
            <mxPoint x="2910" y="1990" as="sourcePoint" />
            <mxPoint x="2960" y="1940" as="targetPoint" />
          </mxGeometry>
        </mxCell>
        <mxCell id="TCsy2gral7Sv24ihn3Ys-142" value="Partners" style="rounded=1;fillColor=#ffe6cc;strokeColor=#d79b00;fontSize=13;" parent="1" vertex="1">
          <mxGeometry x="2380" y="1550" width="120" height="60" as="geometry" />
        </mxCell>
        <mxCell id="TCsy2gral7Sv24ihn3Ys-143" value="id" style="ellipse;fillColor=#fff2cc;strokeColor=#d6b656;fontSize=13;" parent="1" vertex="1">
          <mxGeometry x="2280" y="1620" width="120" height="60" as="geometry" />
        </mxCell>
        <mxCell id="TCsy2gral7Sv24ihn3Ys-144" value="name" style="ellipse;fillColor=#fff2cc;strokeColor=#d6b656;fontSize=13;" parent="1" vertex="1">
          <mxGeometry x="2240" y="1550" width="120" height="60" as="geometry" />
        </mxCell>
        <mxCell id="TCsy2gral7Sv24ihn3Ys-145" value="partnership_type" style="ellipse;fillColor=#fff2cc;strokeColor=#d6b656;fontSize=13;" parent="1" vertex="1">
          <mxGeometry x="2280" y="1480" width="120" height="60" as="geometry" />
        </mxCell>
        <mxCell id="TCsy2gral7Sv24ihn3Ys-146" value="begin_date" style="ellipse;fillColor=#fff2cc;strokeColor=#d6b656;fontSize=13;" parent="1" vertex="1">
          <mxGeometry x="2420" y="1470" width="120" height="60" as="geometry" />
        </mxCell>
        <mxCell id="TCsy2gral7Sv24ihn3Ys-147" value="doctor_id" style="ellipse;fillColor=#fff2cc;strokeColor=#d6b656;fontSize=13;" parent="1" vertex="1">
          <mxGeometry x="2490" y="1610" width="120" height="60" as="geometry" />
        </mxCell>
        <mxCell id="TCsy2gral7Sv24ihn3Ys-148" value="" style="endArrow=none;rounded=0;fontSize=13;" parent="1" source="TCsy2gral7Sv24ihn3Ys-145" target="TCsy2gral7Sv24ihn3Ys-142" edge="1">
          <mxGeometry width="50" height="50" relative="1" as="geometry">
            <mxPoint x="2260" y="1650" as="sourcePoint" />
            <mxPoint x="2310" y="1600" as="targetPoint" />
          </mxGeometry>
        </mxCell>
        <mxCell id="TCsy2gral7Sv24ihn3Ys-149" value="" style="endArrow=none;rounded=0;fontSize=13;" parent="1" source="TCsy2gral7Sv24ihn3Ys-143" target="TCsy2gral7Sv24ihn3Ys-142" edge="1">
          <mxGeometry width="50" height="50" relative="1" as="geometry">
            <mxPoint x="2260" y="1650" as="sourcePoint" />
            <mxPoint x="2310" y="1600" as="targetPoint" />
          </mxGeometry>
        </mxCell>
        <mxCell id="TCsy2gral7Sv24ihn3Ys-150" value="" style="endArrow=none;rounded=0;fontSize=13;" parent="1" source="TCsy2gral7Sv24ihn3Ys-142" target="TCsy2gral7Sv24ihn3Ys-146" edge="1">
          <mxGeometry width="50" height="50" relative="1" as="geometry">
            <mxPoint x="2510" y="1530" as="sourcePoint" />
            <mxPoint x="2460" y="1550" as="targetPoint" />
          </mxGeometry>
        </mxCell>
        <mxCell id="TCsy2gral7Sv24ihn3Ys-151" value="" style="endArrow=none;rounded=0;fontSize=13;" parent="1" source="TCsy2gral7Sv24ihn3Ys-142" target="TCsy2gral7Sv24ihn3Ys-144" edge="1">
          <mxGeometry width="50" height="50" relative="1" as="geometry">
            <mxPoint x="2410" y="1600" as="sourcePoint" />
            <mxPoint x="2460" y="1550" as="targetPoint" />
          </mxGeometry>
        </mxCell>
        <mxCell id="TCsy2gral7Sv24ihn3Ys-152" value="" style="endArrow=none;rounded=0;fontSize=13;" parent="1" source="TCsy2gral7Sv24ihn3Ys-147" target="TCsy2gral7Sv24ihn3Ys-142" edge="1">
          <mxGeometry width="50" height="50" relative="1" as="geometry">
            <mxPoint x="2550" y="1630" as="sourcePoint" />
            <mxPoint x="2600" y="1580" as="targetPoint" />
          </mxGeometry>
        </mxCell>
        <mxCell id="TCsy2gral7Sv24ihn3Ys-153" value="description" style="ellipse;fillColor=#fff2cc;strokeColor=#d6b656;fontSize=13;" parent="1" vertex="1">
          <mxGeometry x="2250" y="1230" width="120" height="60" as="geometry" />
        </mxCell>
        <mxCell id="TCsy2gral7Sv24ihn3Ys-154" value="medicine_dosage" style="ellipse;fillColor=#fff2cc;strokeColor=#d6b656;fontSize=13;" parent="1" vertex="1">
          <mxGeometry x="2400" y="1230" width="120" height="60" as="geometry" />
        </mxCell>
        <mxCell id="TCsy2gral7Sv24ihn3Ys-155" value="" style="endArrow=none;rounded=0;fontSize=13;" parent="1" source="TCsy2gral7Sv24ihn3Ys-157" target="TCsy2gral7Sv24ihn3Ys-153" edge="1">
          <mxGeometry width="50" height="50" relative="1" as="geometry">
            <mxPoint x="2345" y="1310" as="sourcePoint" />
            <mxPoint x="2500" y="1260" as="targetPoint" />
          </mxGeometry>
        </mxCell>
        <mxCell id="TCsy2gral7Sv24ihn3Ys-156" value="" style="endArrow=none;rounded=0;fontSize=13;" parent="1" source="TCsy2gral7Sv24ihn3Ys-157" target="TCsy2gral7Sv24ihn3Ys-154" edge="1">
          <mxGeometry width="50" height="50" relative="1" as="geometry">
            <mxPoint x="2415" y="1310" as="sourcePoint" />
            <mxPoint x="2500" y="1260" as="targetPoint" />
          </mxGeometry>
        </mxCell>
        <mxCell id="TCsy2gral7Sv24ihn3Ys-157" value="includes" style="shape=rhombus;perimeter=rhombusPerimeter;align=center;fillColor=#e1d5e7;strokeColor=#9673a6;fontSize=13;" parent="1" vertex="1">
          <mxGeometry x="2290" y="1300" width="180" height="60" as="geometry" />
        </mxCell>
        <mxCell id="TCsy2gral7Sv24ihn3Ys-158" value="pays" style="shape=rhombus;perimeter=rhombusPerimeter;align=center;fillColor=#e1d5e7;strokeColor=#9673a6;fontSize=13;" parent="1" vertex="1">
          <mxGeometry x="1450" y="800" width="180" height="60" as="geometry" />
        </mxCell>
        <mxCell id="TCsy2gral7Sv24ihn3Ys-159" value="treats" style="shape=rhombus;perimeter=rhombusPerimeter;align=center;fillColor=#e1d5e7;strokeColor=#9673a6;fontSize=13;" parent="1" vertex="1">
          <mxGeometry x="1700" y="1530" width="180" height="60" as="geometry" />
        </mxCell>
        <mxCell id="TCsy2gral7Sv24ihn3Ys-160" value="receives" style="shape=rhombus;perimeter=rhombusPerimeter;align=center;fillColor=#e1d5e7;strokeColor=#9673a6;fontSize=13;" parent="1" vertex="1">
          <mxGeometry x="1560" y="1320" width="180" height="60" as="geometry" />
        </mxCell>
        <mxCell id="TCsy2gral7Sv24ihn3Ys-161" value="mentors" style="shape=rhombus;perimeter=rhombusPerimeter;align=center;fillColor=#e1d5e7;strokeColor=#9673a6;fontSize=13;" parent="1" vertex="1">
          <mxGeometry x="1210" y="1940" width="180" height="60" as="geometry" />
        </mxCell>
        <mxCell id="TCsy2gral7Sv24ihn3Ys-162" value="rests" style="shape=rhombus;perimeter=rhombusPerimeter;align=center;fillColor=#e1d5e7;strokeColor=#9673a6;fontSize=13;" parent="1" vertex="1">
          <mxGeometry x="920" y="740" width="180" height="60" as="geometry" />
        </mxCell>
        <mxCell id="TCsy2gral7Sv24ihn3Ys-163" value="" style="endArrow=none;rounded=0;exitX=0.5;exitY=0;exitDx=0;exitDy=0;entryX=0.08;entryY=0.992;entryDx=0;entryDy=0;entryPerimeter=0;endFill=0;startArrow=none;startFill=0;fontSize=13;" parent="1" source="TCsy2gral7Sv24ihn3Ys-161" target="TCsy2gral7Sv24ihn3Ys-2" edge="1">
          <mxGeometry relative="1" as="geometry">
            <mxPoint x="1470" y="1890" as="sourcePoint" />
            <mxPoint x="1630" y="1890" as="targetPoint" />
            <Array as="points">
              <mxPoint x="1400" y="1870" />
            </Array>
          </mxGeometry>
        </mxCell>
        <mxCell id="O6LtHVy_WTdG4FfeH-hw-35" value="1" style="edgeLabel;align=center;verticalAlign=middle;resizable=0;points=[];fontSize=13;" vertex="1" connectable="0" parent="TCsy2gral7Sv24ihn3Ys-163">
          <mxGeometry x="0.7779" y="-2" relative="1" as="geometry">
            <mxPoint as="offset" />
          </mxGeometry>
        </mxCell>
        <mxCell id="TCsy2gral7Sv24ihn3Ys-165" value="" style="endArrow=none;rounded=0;exitX=0.5;exitY=1;exitDx=0;exitDy=0;entryX=0.5;entryY=1;entryDx=0;entryDy=0;fontSize=13;" parent="1" source="TCsy2gral7Sv24ihn3Ys-161" target="TCsy2gral7Sv24ihn3Ys-114" edge="1">
          <mxGeometry relative="1" as="geometry">
            <mxPoint x="1470" y="1890" as="sourcePoint" />
            <mxPoint x="1630" y="1890" as="targetPoint" />
            <Array as="points">
              <mxPoint x="1300" y="2170" />
              <mxPoint x="890" y="2170" />
            </Array>
          </mxGeometry>
        </mxCell>
        <mxCell id="O6LtHVy_WTdG4FfeH-hw-36" value="N" style="edgeLabel;align=center;verticalAlign=middle;resizable=0;points=[];fontSize=13;" vertex="1" connectable="0" parent="TCsy2gral7Sv24ihn3Ys-165">
          <mxGeometry x="0.9653" y="1" relative="1" as="geometry">
            <mxPoint as="offset" />
          </mxGeometry>
        </mxCell>
        <mxCell id="TCsy2gral7Sv24ihn3Ys-167" value="" style="endArrow=none;rounded=0;entryX=0.75;entryY=1;entryDx=0;entryDy=0;exitX=0.5;exitY=1;exitDx=0;exitDy=0;startArrow=none;startFill=0;endFill=0;fontSize=13;" parent="1" source="TCsy2gral7Sv24ihn3Ys-159" target="TCsy2gral7Sv24ihn3Ys-2" edge="1">
          <mxGeometry relative="1" as="geometry">
            <mxPoint x="1850" y="1730" as="sourcePoint" />
            <mxPoint x="2010" y="1730" as="targetPoint" />
            <Array as="points">
              <mxPoint x="1730" y="1950" />
              <mxPoint x="1500" y="1950" />
            </Array>
          </mxGeometry>
        </mxCell>
        <mxCell id="O6LtHVy_WTdG4FfeH-hw-32" value="1" style="edgeLabel;align=center;verticalAlign=middle;resizable=0;points=[];fontSize=13;" vertex="1" connectable="0" parent="TCsy2gral7Sv24ihn3Ys-167">
          <mxGeometry x="0.9649" y="1" relative="1" as="geometry">
            <mxPoint as="offset" />
          </mxGeometry>
        </mxCell>
        <mxCell id="TCsy2gral7Sv24ihn3Ys-169" value="" style="endArrow=none;rounded=0;exitX=0.5;exitY=0;exitDx=0;exitDy=0;entryX=0.5;entryY=1;entryDx=0;entryDy=0;fontSize=13;" parent="1" source="TCsy2gral7Sv24ihn3Ys-159" target="TCsy2gral7Sv24ihn3Ys-1" edge="1">
          <mxGeometry relative="1" as="geometry">
            <mxPoint x="1280" y="1460" as="sourcePoint" />
            <mxPoint x="1440" y="1460" as="targetPoint" />
            <Array as="points">
              <mxPoint x="1230" y="1400" />
            </Array>
          </mxGeometry>
        </mxCell>
        <mxCell id="O6LtHVy_WTdG4FfeH-hw-27" value="N" style="edgeLabel;align=center;verticalAlign=middle;resizable=0;points=[];fontSize=13;" vertex="1" connectable="0" parent="TCsy2gral7Sv24ihn3Ys-169">
          <mxGeometry x="0.9539" y="1" relative="1" as="geometry">
            <mxPoint as="offset" />
          </mxGeometry>
        </mxCell>
        <mxCell id="TCsy2gral7Sv24ihn3Ys-171" value="" style="endArrow=none;rounded=0;entryX=0.5;entryY=1;entryDx=0;entryDy=0;exitX=0;exitY=0.5;exitDx=0;exitDy=0;startArrow=none;startFill=0;endFill=0;fontSize=13;" parent="1" source="TCsy2gral7Sv24ihn3Ys-162" target="TCsy2gral7Sv24ihn3Ys-48" edge="1">
          <mxGeometry relative="1" as="geometry">
            <mxPoint x="1470" y="860" as="sourcePoint" />
            <mxPoint x="1630" y="860" as="targetPoint" />
          </mxGeometry>
        </mxCell>
        <mxCell id="O6LtHVy_WTdG4FfeH-hw-22" value="1" style="edgeLabel;align=center;verticalAlign=middle;resizable=0;points=[];fontSize=13;" vertex="1" connectable="0" parent="TCsy2gral7Sv24ihn3Ys-171">
          <mxGeometry x="0.7158" y="1" relative="1" as="geometry">
            <mxPoint as="offset" />
          </mxGeometry>
        </mxCell>
        <mxCell id="TCsy2gral7Sv24ihn3Ys-173" value="" style="endArrow=none;rounded=0;entryX=0.33;entryY=0.005;entryDx=0;entryDy=0;exitX=1;exitY=0.5;exitDx=0;exitDy=0;entryPerimeter=0;fontSize=13;" parent="1" source="TCsy2gral7Sv24ihn3Ys-162" target="TCsy2gral7Sv24ihn3Ys-1" edge="1">
          <mxGeometry relative="1" as="geometry">
            <mxPoint x="1270" y="960" as="sourcePoint" />
            <mxPoint x="1430" y="960" as="targetPoint" />
            <Array as="points">
              <mxPoint x="1120" y="920" />
            </Array>
          </mxGeometry>
        </mxCell>
        <mxCell id="O6LtHVy_WTdG4FfeH-hw-24" value="N" style="edgeLabel;align=center;verticalAlign=middle;resizable=0;points=[];fontSize=13;" vertex="1" connectable="0" parent="TCsy2gral7Sv24ihn3Ys-173">
          <mxGeometry x="0.9139" relative="1" as="geometry">
            <mxPoint as="offset" />
          </mxGeometry>
        </mxCell>
        <mxCell id="TCsy2gral7Sv24ihn3Ys-175" value="" style="endArrow=none;rounded=0;entryX=0.5;entryY=1;entryDx=0;entryDy=0;exitX=1;exitY=0.5;exitDx=0;exitDy=0;fontSize=13;" parent="1" source="TCsy2gral7Sv24ihn3Ys-158" target="TCsy2gral7Sv24ihn3Ys-94" edge="1">
          <mxGeometry relative="1" as="geometry">
            <mxPoint x="1210" y="890" as="sourcePoint" />
            <mxPoint x="1370" y="890" as="targetPoint" />
            <Array as="points">
              <mxPoint x="1860" y="810" />
            </Array>
          </mxGeometry>
        </mxCell>
        <mxCell id="O6LtHVy_WTdG4FfeH-hw-23" value="N" style="edgeLabel;align=center;verticalAlign=middle;resizable=0;points=[];fontSize=13;" vertex="1" connectable="0" parent="TCsy2gral7Sv24ihn3Ys-175">
          <mxGeometry x="0.9317" y="2" relative="1" as="geometry">
            <mxPoint as="offset" />
          </mxGeometry>
        </mxCell>
        <mxCell id="TCsy2gral7Sv24ihn3Ys-177" value="" style="endArrow=none;rounded=0;entryX=0.75;entryY=0;entryDx=0;entryDy=0;exitX=0;exitY=0.5;exitDx=0;exitDy=0;startArrow=none;startFill=0;endFill=0;fontSize=13;" parent="1" source="TCsy2gral7Sv24ihn3Ys-158" target="TCsy2gral7Sv24ihn3Ys-1" edge="1">
          <mxGeometry relative="1" as="geometry">
            <mxPoint x="1400" y="910" as="sourcePoint" />
            <mxPoint x="1560" y="910" as="targetPoint" />
            <Array as="points">
              <mxPoint x="1400" y="890" />
            </Array>
          </mxGeometry>
        </mxCell>
        <mxCell id="O6LtHVy_WTdG4FfeH-hw-25" value="1" style="edgeLabel;align=center;verticalAlign=middle;resizable=0;points=[];fontSize=13;" vertex="1" connectable="0" parent="TCsy2gral7Sv24ihn3Ys-177">
          <mxGeometry x="0.8859" y="2" relative="1" as="geometry">
            <mxPoint as="offset" />
          </mxGeometry>
        </mxCell>
        <mxCell id="TCsy2gral7Sv24ihn3Ys-179" value="" style="endArrow=none;rounded=0;entryX=0.75;entryY=1;entryDx=0;entryDy=0;exitX=0;exitY=0.5;exitDx=0;exitDy=0;fontSize=13;" parent="1" source="TCsy2gral7Sv24ihn3Ys-157" target="TCsy2gral7Sv24ihn3Ys-3" edge="1">
          <mxGeometry relative="1" as="geometry">
            <mxPoint x="2290" y="1210" as="sourcePoint" />
            <mxPoint x="2450" y="1210" as="targetPoint" />
            <Array as="points">
              <mxPoint x="2080" y="1260" />
            </Array>
          </mxGeometry>
        </mxCell>
        <mxCell id="O6LtHVy_WTdG4FfeH-hw-29" value="N" style="edgeLabel;align=center;verticalAlign=middle;resizable=0;points=[];fontSize=13;" vertex="1" connectable="0" parent="TCsy2gral7Sv24ihn3Ys-179">
          <mxGeometry x="0.9355" y="1" relative="1" as="geometry">
            <mxPoint as="offset" />
          </mxGeometry>
        </mxCell>
        <mxCell id="TCsy2gral7Sv24ihn3Ys-181" value="" style="endArrow=none;rounded=0;entryX=0.5;entryY=1;entryDx=0;entryDy=0;exitX=1;exitY=0.5;exitDx=0;exitDy=0;fontSize=13;" parent="1" source="TCsy2gral7Sv24ihn3Ys-157" target="TCsy2gral7Sv24ihn3Ys-105" edge="1">
          <mxGeometry relative="1" as="geometry">
            <mxPoint x="2290" y="1210" as="sourcePoint" />
            <mxPoint x="2450" y="1210" as="targetPoint" />
            <Array as="points">
              <mxPoint x="2740" y="1260" />
            </Array>
          </mxGeometry>
        </mxCell>
        <mxCell id="O6LtHVy_WTdG4FfeH-hw-30" value="M" style="edgeLabel;align=center;verticalAlign=middle;resizable=0;points=[];fontSize=13;" vertex="1" connectable="0" parent="TCsy2gral7Sv24ihn3Ys-181">
          <mxGeometry x="0.9443" y="-2" relative="1" as="geometry">
            <mxPoint as="offset" />
          </mxGeometry>
        </mxCell>
        <mxCell id="TCsy2gral7Sv24ihn3Ys-183" value="" style="endArrow=none;rounded=0;entryX=0.25;entryY=1;entryDx=0;entryDy=0;exitX=1;exitY=0.5;exitDx=0;exitDy=0;endFill=0;startArrow=none;startFill=0;fontSize=13;" parent="1" source="TCsy2gral7Sv24ihn3Ys-160" target="TCsy2gral7Sv24ihn3Ys-3" edge="1">
          <mxGeometry relative="1" as="geometry">
            <mxPoint x="1840" y="1200" as="sourcePoint" />
            <mxPoint x="2000" y="1200" as="targetPoint" />
            <Array as="points">
              <mxPoint x="1860" y="1290" />
            </Array>
          </mxGeometry>
        </mxCell>
        <mxCell id="O6LtHVy_WTdG4FfeH-hw-28" value="1" style="edgeLabel;align=center;verticalAlign=middle;resizable=0;points=[];fontSize=13;" vertex="1" connectable="0" parent="TCsy2gral7Sv24ihn3Ys-183">
          <mxGeometry x="0.8915" y="-1" relative="1" as="geometry">
            <mxPoint as="offset" />
          </mxGeometry>
        </mxCell>
        <mxCell id="TCsy2gral7Sv24ihn3Ys-185" value="" style="endArrow=none;rounded=0;entryX=0.645;entryY=1.017;entryDx=0;entryDy=0;exitX=0;exitY=0.5;exitDx=0;exitDy=0;entryPerimeter=0;fontSize=13;" parent="1" source="TCsy2gral7Sv24ihn3Ys-160" target="TCsy2gral7Sv24ihn3Ys-1" edge="1">
          <mxGeometry relative="1" as="geometry">
            <mxPoint x="1840" y="1200" as="sourcePoint" />
            <mxPoint x="2000" y="1200" as="targetPoint" />
            <Array as="points">
              <mxPoint x="1270" y="1340" />
            </Array>
          </mxGeometry>
        </mxCell>
        <mxCell id="O6LtHVy_WTdG4FfeH-hw-26" value="N" style="edgeLabel;align=center;verticalAlign=middle;resizable=0;points=[];fontSize=13;" vertex="1" connectable="0" parent="TCsy2gral7Sv24ihn3Ys-185">
          <mxGeometry x="0.9283" y="1" relative="1" as="geometry">
            <mxPoint as="offset" />
          </mxGeometry>
        </mxCell>
        <mxCell id="TCsy2gral7Sv24ihn3Ys-189" value="is" style="shape=rhombus;perimeter=rhombusPerimeter;align=center;fillColor=#e1d5e7;strokeColor=#9673a6;fontSize=13;" parent="1" vertex="1">
          <mxGeometry x="565" y="470" width="180" height="60" as="geometry" />
        </mxCell>
        <mxCell id="TCsy2gral7Sv24ihn3Ys-190" value="is" style="shape=rhombus;perimeter=rhombusPerimeter;align=center;fillColor=#e1d5e7;strokeColor=#9673a6;fontSize=13;" parent="1" vertex="1">
          <mxGeometry x="930" y="500" width="180" height="60" as="geometry" />
        </mxCell>
        <mxCell id="TCsy2gral7Sv24ihn3Ys-191" value="" style="endArrow=none;rounded=0;exitX=0.25;exitY=0;exitDx=0;exitDy=0;entryX=1;entryY=0.5;entryDx=0;entryDy=0;strokeColor=default;startArrow=none;startFill=0;endFill=0;fontSize=13;" parent="1" source="TCsy2gral7Sv24ihn3Ys-48" target="TCsy2gral7Sv24ihn3Ys-189" edge="1">
          <mxGeometry width="50" height="50" relative="1" as="geometry">
            <mxPoint x="940" y="510" as="sourcePoint" />
            <mxPoint x="990" y="460" as="targetPoint" />
            <Array as="points">
              <mxPoint x="780" y="550" />
            </Array>
          </mxGeometry>
        </mxCell>
        <mxCell id="O6LtHVy_WTdG4FfeH-hw-20" value="1" style="edgeLabel;align=center;verticalAlign=middle;resizable=0;points=[];fontSize=13;" vertex="1" connectable="0" parent="TCsy2gral7Sv24ihn3Ys-191">
          <mxGeometry x="-0.7539" y="1" relative="1" as="geometry">
            <mxPoint as="offset" />
          </mxGeometry>
        </mxCell>
        <mxCell id="TCsy2gral7Sv24ihn3Ys-193" value="" style="endArrow=none;rounded=0;entryX=0.5;entryY=1;entryDx=0;entryDy=0;exitX=0;exitY=0.5;exitDx=0;exitDy=0;startArrow=none;startFill=0;endFill=0;fontSize=13;" parent="1" source="TCsy2gral7Sv24ihn3Ys-189" target="TCsy2gral7Sv24ihn3Ys-4" edge="1">
          <mxGeometry width="50" height="50" relative="1" as="geometry">
            <mxPoint x="1025" y="450" as="sourcePoint" />
            <mxPoint x="1075" y="400" as="targetPoint" />
            <Array as="points">
              <mxPoint x="485" y="450" />
            </Array>
          </mxGeometry>
        </mxCell>
        <mxCell id="O6LtHVy_WTdG4FfeH-hw-18" value="1" style="edgeLabel;align=center;verticalAlign=middle;resizable=0;points=[];fontSize=13;" vertex="1" connectable="0" parent="TCsy2gral7Sv24ihn3Ys-193">
          <mxGeometry x="0.8714" y="3" relative="1" as="geometry">
            <mxPoint as="offset" />
          </mxGeometry>
        </mxCell>
        <mxCell id="TCsy2gral7Sv24ihn3Ys-195" value="" style="endArrow=none;rounded=0;exitX=0.75;exitY=0;exitDx=0;exitDy=0;entryX=0;entryY=0.5;entryDx=0;entryDy=0;startArrow=none;startFill=0;endFill=0;fontSize=13;" parent="1" source="TCsy2gral7Sv24ihn3Ys-48" target="TCsy2gral7Sv24ihn3Ys-190" edge="1">
          <mxGeometry width="50" height="50" relative="1" as="geometry">
            <mxPoint x="1090" y="590" as="sourcePoint" />
            <mxPoint x="1140" y="540" as="targetPoint" />
          </mxGeometry>
        </mxCell>
        <mxCell id="O6LtHVy_WTdG4FfeH-hw-21" value="1" style="edgeLabel;align=center;verticalAlign=middle;resizable=0;points=[];fontSize=13;" vertex="1" connectable="0" parent="TCsy2gral7Sv24ihn3Ys-195">
          <mxGeometry x="-0.6831" y="1" relative="1" as="geometry">
            <mxPoint as="offset" />
          </mxGeometry>
        </mxCell>
        <mxCell id="TCsy2gral7Sv24ihn3Ys-197" value="" style="endArrow=none;rounded=0;entryX=1;entryY=0.5;entryDx=0;entryDy=0;exitX=0.5;exitY=1;exitDx=0;exitDy=0;endFill=0;startArrow=none;startFill=0;fontSize=13;" parent="1" source="TCsy2gral7Sv24ihn3Ys-59" target="TCsy2gral7Sv24ihn3Ys-190" edge="1">
          <mxGeometry width="50" height="50" relative="1" as="geometry">
            <mxPoint x="900" y="690" as="sourcePoint" />
            <mxPoint x="950" y="640" as="targetPoint" />
            <Array as="points">
              <mxPoint x="1210" y="470" />
            </Array>
          </mxGeometry>
        </mxCell>
        <mxCell id="O6LtHVy_WTdG4FfeH-hw-19" value="1" style="edgeLabel;align=center;verticalAlign=middle;resizable=0;points=[];fontSize=13;" vertex="1" connectable="0" parent="TCsy2gral7Sv24ihn3Ys-197">
          <mxGeometry x="-0.8679" y="-1" relative="1" as="geometry">
            <mxPoint as="offset" />
          </mxGeometry>
        </mxCell>
        <mxCell id="TCsy2gral7Sv24ihn3Ys-199" value="gender" style="ellipse;fillColor=#fff2cc;strokeColor=#d6b656;fontSize=13;" parent="1" vertex="1">
          <mxGeometry x="1410" y="1550" width="120" height="60" as="geometry" />
        </mxCell>
        <mxCell id="TCsy2gral7Sv24ihn3Ys-200" value="end_date" style="ellipse;fillColor=#fff2cc;strokeColor=#d6b656;fontSize=13;" parent="1" vertex="1">
          <mxGeometry x="2510" y="1525" width="120" height="60" as="geometry" />
        </mxCell>
        <mxCell id="TCsy2gral7Sv24ihn3Ys-201" value="" style="endArrow=none;rounded=0;fontSize=13;" parent="1" source="TCsy2gral7Sv24ihn3Ys-142" target="TCsy2gral7Sv24ihn3Ys-200" edge="1">
          <mxGeometry width="50" height="50" relative="1" as="geometry">
            <mxPoint x="2380" y="1660" as="sourcePoint" />
            <mxPoint x="2430" y="1610" as="targetPoint" />
          </mxGeometry>
        </mxCell>
        <mxCell id="TCsy2gral7Sv24ihn3Ys-202" value="treatment_id" style="ellipse;fillColor=#fff2cc;strokeColor=#d6b656;fontSize=13;" parent="1" vertex="1">
          <mxGeometry x="2850" y="1100" width="120" height="60" as="geometry" />
        </mxCell>
        <mxCell id="TCsy2gral7Sv24ihn3Ys-203" value="" style="endArrow=none;rounded=0;fontSize=13;" parent="1" source="TCsy2gral7Sv24ihn3Ys-105" target="TCsy2gral7Sv24ihn3Ys-202" edge="1">
          <mxGeometry width="50" height="50" relative="1" as="geometry">
            <mxPoint x="2810" y="1140" as="sourcePoint" />
            <mxPoint x="2860" y="1090" as="targetPoint" />
          </mxGeometry>
        </mxCell>
        <mxCell id="TCsy2gral7Sv24ihn3Ys-204" value="affiliates" style="shape=rhombus;perimeter=rhombusPerimeter;align=center;fillColor=#e1d5e7;strokeColor=#9673a6;fontSize=13;" parent="1" vertex="1">
          <mxGeometry x="1990" y="1870" width="180" height="60" as="geometry" />
        </mxCell>
        <mxCell id="TCsy2gral7Sv24ihn3Ys-205" value="" style="endArrow=none;rounded=0;entryX=0.5;entryY=1;entryDx=0;entryDy=0;exitX=1;exitY=0.5;exitDx=0;exitDy=0;fontSize=13;" parent="1" source="TCsy2gral7Sv24ihn3Ys-204" target="TCsy2gral7Sv24ihn3Ys-142" edge="1">
          <mxGeometry width="50" height="50" relative="1" as="geometry">
            <mxPoint x="2220" y="2020" as="sourcePoint" />
            <mxPoint x="2270" y="1970" as="targetPoint" />
            <Array as="points">
              <mxPoint x="2390" y="1800" />
            </Array>
          </mxGeometry>
        </mxCell>
        <mxCell id="O6LtHVy_WTdG4FfeH-hw-31" value="M" style="edgeLabel;align=center;verticalAlign=middle;resizable=0;points=[];fontSize=13;" vertex="1" connectable="0" parent="TCsy2gral7Sv24ihn3Ys-205">
          <mxGeometry x="0.9409" relative="1" as="geometry">
            <mxPoint as="offset" />
          </mxGeometry>
        </mxCell>
        <mxCell id="TCsy2gral7Sv24ihn3Ys-207" value="" style="endArrow=none;rounded=0;entryX=0;entryY=0.5;entryDx=0;entryDy=0;fontSize=13;" parent="1" target="TCsy2gral7Sv24ihn3Ys-204" edge="1">
          <mxGeometry width="50" height="50" relative="1" as="geometry">
            <mxPoint x="1450" y="1750" as="sourcePoint" />
            <mxPoint x="2270" y="1970" as="targetPoint" />
            <Array as="points">
              <mxPoint x="1480" y="2060" />
              <mxPoint x="1820" y="2060" />
            </Array>
          </mxGeometry>
        </mxCell>
        <mxCell id="O6LtHVy_WTdG4FfeH-hw-33" value="N" style="edgeLabel;align=center;verticalAlign=middle;resizable=0;points=[];fontSize=13;" vertex="1" connectable="0" parent="TCsy2gral7Sv24ihn3Ys-207">
          <mxGeometry x="-0.9803" y="2" relative="1" as="geometry">
            <mxPoint as="offset" />
          </mxGeometry>
        </mxCell>
        <mxCell id="TCsy2gral7Sv24ihn3Ys-209" value="Employees" style="rounded=1;fillColor=#ffe6cc;strokeColor=#d79b00;fontSize=13;" parent="1" vertex="1">
          <mxGeometry x="2085" y="2320" width="120" height="60" as="geometry" />
        </mxCell>
        <mxCell id="TCsy2gral7Sv24ihn3Ys-210" value="shift_id" style="ellipse;fillColor=#fff2cc;strokeColor=#d6b656;fontSize=13;" parent="1" vertex="1">
          <mxGeometry x="2210" y="2370" width="120" height="60" as="geometry" />
        </mxCell>
        <mxCell id="TCsy2gral7Sv24ihn3Ys-211" value="id" style="ellipse;fillColor=#fff2cc;strokeColor=#d6b656;fontSize=13;" parent="1" vertex="1">
          <mxGeometry x="1965" y="2370" width="120" height="60" as="geometry" />
        </mxCell>
        <mxCell id="TCsy2gral7Sv24ihn3Ys-213" value="type" style="ellipse;fillColor=#fff2cc;strokeColor=#d6b656;fontSize=13;" parent="1" vertex="1">
          <mxGeometry x="1955" y="2270" width="120" height="60" as="geometry" />
        </mxCell>
        <mxCell id="TCsy2gral7Sv24ihn3Ys-214" value="" style="endArrow=none;rounded=0;fontSize=13;" parent="1" source="TCsy2gral7Sv24ihn3Ys-209" target="TCsy2gral7Sv24ihn3Ys-213" edge="1">
          <mxGeometry width="50" height="50" relative="1" as="geometry">
            <mxPoint x="2175" y="2420" as="sourcePoint" />
            <mxPoint x="2225" y="2370" as="targetPoint" />
          </mxGeometry>
        </mxCell>
        <mxCell id="TCsy2gral7Sv24ihn3Ys-215" value="" style="endArrow=none;rounded=0;fontSize=13;" parent="1" source="TCsy2gral7Sv24ihn3Ys-211" target="TCsy2gral7Sv24ihn3Ys-209" edge="1">
          <mxGeometry width="50" height="50" relative="1" as="geometry">
            <mxPoint x="2175" y="2420" as="sourcePoint" />
            <mxPoint x="2225" y="2370" as="targetPoint" />
          </mxGeometry>
        </mxCell>
        <mxCell id="TCsy2gral7Sv24ihn3Ys-217" value="" style="endArrow=none;rounded=0;fontSize=13;" parent="1" source="TCsy2gral7Sv24ihn3Ys-210" target="TCsy2gral7Sv24ihn3Ys-209" edge="1">
          <mxGeometry width="50" height="50" relative="1" as="geometry">
            <mxPoint x="2175" y="2420" as="sourcePoint" />
            <mxPoint x="2225" y="2370" as="targetPoint" />
          </mxGeometry>
        </mxCell>
        <mxCell id="TCsy2gral7Sv24ihn3Ys-218" value="works" style="shape=rhombus;perimeter=rhombusPerimeter;align=center;fillColor=#e1d5e7;strokeColor=#9673a6;fontSize=13;" parent="1" vertex="1">
          <mxGeometry x="2360" y="2120" width="180" height="60" as="geometry" />
        </mxCell>
        <mxCell id="TCsy2gral7Sv24ihn3Ys-219" value="is" style="shape=rhombus;perimeter=rhombusPerimeter;align=center;fillColor=#e1d5e7;strokeColor=#9673a6;fontSize=13;" parent="1" vertex="1">
          <mxGeometry x="2260" y="2610" width="180" height="60" as="geometry" />
        </mxCell>
        <mxCell id="TCsy2gral7Sv24ihn3Ys-220" value="is" style="shape=rhombus;perimeter=rhombusPerimeter;align=center;fillColor=#e1d5e7;strokeColor=#9673a6;fontSize=13;" parent="1" vertex="1">
          <mxGeometry x="1720" y="2480" width="180" height="60" as="geometry" />
        </mxCell>
        <mxCell id="TCsy2gral7Sv24ihn3Ys-221" value="" style="endArrow=none;rounded=0;exitX=0.75;exitY=0;exitDx=0;exitDy=0;entryX=0;entryY=0.5;entryDx=0;entryDy=0;startArrow=none;startFill=0;endFill=0;fontSize=13;" parent="1" source="TCsy2gral7Sv24ihn3Ys-66" target="TCsy2gral7Sv24ihn3Ys-220" edge="1">
          <mxGeometry width="50" height="50" relative="1" as="geometry">
            <mxPoint x="1420" y="2540" as="sourcePoint" />
            <mxPoint x="1470" y="2490" as="targetPoint" />
            <Array as="points">
              <mxPoint x="1540" y="2550" />
            </Array>
          </mxGeometry>
        </mxCell>
        <mxCell id="O6LtHVy_WTdG4FfeH-hw-42" value="1" style="edgeLabel;align=center;verticalAlign=middle;resizable=0;points=[];fontSize=13;" vertex="1" connectable="0" parent="TCsy2gral7Sv24ihn3Ys-221">
          <mxGeometry x="-0.9154" y="1" relative="1" as="geometry">
            <mxPoint as="offset" />
          </mxGeometry>
        </mxCell>
        <mxCell id="TCsy2gral7Sv24ihn3Ys-223" value="" style="endArrow=none;rounded=0;exitX=1;exitY=0.5;exitDx=0;exitDy=0;entryX=0.25;entryY=1;entryDx=0;entryDy=0;endFill=0;startArrow=none;startFill=0;fontSize=13;" parent="1" source="TCsy2gral7Sv24ihn3Ys-220" target="TCsy2gral7Sv24ihn3Ys-209" edge="1">
          <mxGeometry width="50" height="50" relative="1" as="geometry">
            <mxPoint x="1900" y="2600" as="sourcePoint" />
            <mxPoint x="1950" y="2550" as="targetPoint" />
            <Array as="points">
              <mxPoint x="2110" y="2500" />
            </Array>
          </mxGeometry>
        </mxCell>
        <mxCell id="O6LtHVy_WTdG4FfeH-hw-41" value="1" style="edgeLabel;align=center;verticalAlign=middle;resizable=0;points=[];fontSize=13;" vertex="1" connectable="0" parent="TCsy2gral7Sv24ihn3Ys-223">
          <mxGeometry x="0.8918" relative="1" as="geometry">
            <mxPoint as="offset" />
          </mxGeometry>
        </mxCell>
        <mxCell id="TCsy2gral7Sv24ihn3Ys-225" value="" style="endArrow=none;rounded=0;exitX=0;exitY=0.5;exitDx=0;exitDy=0;entryX=0.75;entryY=1;entryDx=0;entryDy=0;endFill=0;startArrow=none;startFill=0;fontSize=13;" parent="1" source="TCsy2gral7Sv24ihn3Ys-219" target="TCsy2gral7Sv24ihn3Ys-209" edge="1">
          <mxGeometry width="50" height="50" relative="1" as="geometry">
            <mxPoint x="2150" y="2550" as="sourcePoint" />
            <mxPoint x="2200" y="2500" as="targetPoint" />
            <Array as="points">
              <mxPoint x="2180" y="2520" />
            </Array>
          </mxGeometry>
        </mxCell>
        <mxCell id="O6LtHVy_WTdG4FfeH-hw-40" value="1" style="edgeLabel;align=center;verticalAlign=middle;resizable=0;points=[];fontSize=13;" vertex="1" connectable="0" parent="TCsy2gral7Sv24ihn3Ys-225">
          <mxGeometry x="0.884" y="-1" relative="1" as="geometry">
            <mxPoint as="offset" />
          </mxGeometry>
        </mxCell>
        <mxCell id="TCsy2gral7Sv24ihn3Ys-227" value="" style="endArrow=none;rounded=0;entryX=0.5;entryY=1;entryDx=0;entryDy=0;exitX=1;exitY=0.5;exitDx=0;exitDy=0;endFill=0;strokeColor=default;fontSize=13;" parent="1" source="TCsy2gral7Sv24ihn3Ys-219" target="TCsy2gral7Sv24ihn3Ys-81" edge="1">
          <mxGeometry width="50" height="50" relative="1" as="geometry">
            <mxPoint x="2310" y="2530" as="sourcePoint" />
            <mxPoint x="2360" y="2480" as="targetPoint" />
            <Array as="points">
              <mxPoint x="2620" y="2730" />
              <mxPoint x="2680" y="2710" />
            </Array>
          </mxGeometry>
        </mxCell>
        <mxCell id="O6LtHVy_WTdG4FfeH-hw-43" value="1" style="edgeLabel;align=center;verticalAlign=middle;resizable=0;points=[];fontSize=13;" vertex="1" connectable="0" parent="TCsy2gral7Sv24ihn3Ys-227">
          <mxGeometry x="0.9235" y="1" relative="1" as="geometry">
            <mxPoint as="offset" />
          </mxGeometry>
        </mxCell>
        <mxCell id="TCsy2gral7Sv24ihn3Ys-229" value="" style="endArrow=none;rounded=0;exitX=0.75;exitY=0;exitDx=0;exitDy=0;entryX=0;entryY=0.5;entryDx=0;entryDy=0;startArrow=none;startFill=0;endFill=0;fontSize=13;" parent="1" source="TCsy2gral7Sv24ihn3Ys-209" target="TCsy2gral7Sv24ihn3Ys-218" edge="1">
          <mxGeometry width="50" height="50" relative="1" as="geometry">
            <mxPoint x="2600" y="2140" as="sourcePoint" />
            <mxPoint x="2650" y="2090" as="targetPoint" />
            <Array as="points">
              <mxPoint x="2260" y="2170" />
            </Array>
          </mxGeometry>
        </mxCell>
        <mxCell id="O6LtHVy_WTdG4FfeH-hw-39" value="1" style="edgeLabel;align=center;verticalAlign=middle;resizable=0;points=[];fontSize=13;" vertex="1" connectable="0" parent="TCsy2gral7Sv24ihn3Ys-229">
          <mxGeometry x="-0.8803" y="2" relative="1" as="geometry">
            <mxPoint as="offset" />
          </mxGeometry>
        </mxCell>
        <mxCell id="TCsy2gral7Sv24ihn3Ys-231" value="" style="endArrow=none;rounded=0;entryX=0.5;entryY=1;entryDx=0;entryDy=0;exitX=1;exitY=0.5;exitDx=0;exitDy=0;fontSize=13;" parent="1" source="TCsy2gral7Sv24ihn3Ys-218" target="TCsy2gral7Sv24ihn3Ys-133" edge="1">
          <mxGeometry width="50" height="50" relative="1" as="geometry">
            <mxPoint x="2600" y="2140" as="sourcePoint" />
            <mxPoint x="2650" y="2090" as="targetPoint" />
            <Array as="points">
              <mxPoint x="2780" y="2140" />
            </Array>
          </mxGeometry>
        </mxCell>
        <mxCell id="O6LtHVy_WTdG4FfeH-hw-37" value="N" style="edgeLabel;align=center;verticalAlign=middle;resizable=0;points=[];fontSize=13;" vertex="1" connectable="0" parent="TCsy2gral7Sv24ihn3Ys-231">
          <mxGeometry x="0.9049" y="2" relative="1" as="geometry">
            <mxPoint as="offset" />
          </mxGeometry>
        </mxCell>
        <mxCell id="TCsy2gral7Sv24ihn3Ys-233" value="" style="endArrow=none;rounded=0;entryX=0;entryY=0.5;entryDx=0;entryDy=0;exitX=0.25;exitY=1;exitDx=0;exitDy=0;startArrow=none;startFill=0;endFill=0;fontSize=13;" parent="1" source="TCsy2gral7Sv24ihn3Ys-2" target="TCsy2gral7Sv24ihn3Ys-235" edge="1">
          <mxGeometry width="50" height="50" relative="1" as="geometry">
            <mxPoint x="1540" y="1950" as="sourcePoint" />
            <mxPoint x="1590" y="1900" as="targetPoint" />
            <Array as="points">
              <mxPoint x="1420" y="2180" />
            </Array>
          </mxGeometry>
        </mxCell>
        <mxCell id="O6LtHVy_WTdG4FfeH-hw-34" value="1" style="edgeLabel;align=center;verticalAlign=middle;resizable=0;points=[];fontSize=13;" vertex="1" connectable="0" parent="TCsy2gral7Sv24ihn3Ys-233">
          <mxGeometry x="-0.9407" relative="1" as="geometry">
            <mxPoint as="offset" />
          </mxGeometry>
        </mxCell>
        <mxCell id="TCsy2gral7Sv24ihn3Ys-235" value="is" style="shape=rhombus;perimeter=rhombusPerimeter;align=center;fillColor=#e1d5e7;strokeColor=#9673a6;fontSize=13;" parent="1" vertex="1">
          <mxGeometry x="1580" y="2150" width="180" height="60" as="geometry" />
        </mxCell>
        <mxCell id="TCsy2gral7Sv24ihn3Ys-236" value="" style="endArrow=none;rounded=0;exitX=1;exitY=0.5;exitDx=0;exitDy=0;entryX=0.25;entryY=0;entryDx=0;entryDy=0;endFill=0;startArrow=none;startFill=0;fontSize=13;" parent="1" source="TCsy2gral7Sv24ihn3Ys-235" target="TCsy2gral7Sv24ihn3Ys-209" edge="1">
          <mxGeometry width="50" height="50" relative="1" as="geometry">
            <mxPoint x="1930" y="2110" as="sourcePoint" />
            <mxPoint x="1980" y="2060" as="targetPoint" />
            <Array as="points">
              <mxPoint x="2080" y="2210" />
            </Array>
          </mxGeometry>
        </mxCell>
        <mxCell id="O6LtHVy_WTdG4FfeH-hw-38" value="1" style="edgeLabel;align=center;verticalAlign=middle;resizable=0;points=[];fontSize=13;" vertex="1" connectable="0" parent="TCsy2gral7Sv24ihn3Ys-236">
          <mxGeometry x="0.9268" relative="1" as="geometry">
            <mxPoint as="offset" />
          </mxGeometry>
        </mxCell>
        <mxCell id="TCsy2gral7Sv24ihn3Ys-238" value="" style="endArrow=none;rounded=0;fontSize=13;" parent="1" source="TCsy2gral7Sv24ihn3Ys-2" target="TCsy2gral7Sv24ihn3Ys-199" edge="1">
          <mxGeometry width="50" height="50" relative="1" as="geometry">
            <mxPoint x="1465" y="1670" as="sourcePoint" />
            <mxPoint x="1515" y="1620" as="targetPoint" />
          </mxGeometry>
        </mxCell>
        <mxCell id="O6LtHVy_WTdG4FfeH-hw-1" value="room_id" style="ellipse;fillColor=#fff2cc;strokeColor=#d6b656;fontSize=13;" vertex="1" parent="1">
          <mxGeometry x="325" y="360" width="120" height="60" as="geometry" />
        </mxCell>
        <mxCell id="O6LtHVy_WTdG4FfeH-hw-2" value="" style="endArrow=none;rounded=0;fontSize=13;" edge="1" parent="1" source="TCsy2gral7Sv24ihn3Ys-4" target="O6LtHVy_WTdG4FfeH-hw-1">
          <mxGeometry width="50" height="50" relative="1" as="geometry">
            <mxPoint x="275" y="590" as="sourcePoint" />
            <mxPoint x="325" y="540" as="targetPoint" />
          </mxGeometry>
        </mxCell>
        <mxCell id="O6LtHVy_WTdG4FfeH-hw-3" value="" style="endArrow=none;rounded=0;fontSize=13;" edge="1" parent="1" source="TCsy2gral7Sv24ihn3Ys-4" target="TCsy2gral7Sv24ihn3Ys-55">
          <mxGeometry width="50" height="50" relative="1" as="geometry">
            <mxPoint x="585" y="430" as="sourcePoint" />
            <mxPoint x="635" y="380" as="targetPoint" />
          </mxGeometry>
        </mxCell>
        <mxCell id="O6LtHVy_WTdG4FfeH-hw-4" value="room_id" style="ellipse;fillColor=#fff2cc;strokeColor=#d6b656;fontSize=13;" vertex="1" parent="1">
          <mxGeometry x="1240" y="280" width="120" height="60" as="geometry" />
        </mxCell>
        <mxCell id="O6LtHVy_WTdG4FfeH-hw-5" value="" style="endArrow=none;rounded=0;fontSize=13;" edge="1" parent="1" source="TCsy2gral7Sv24ihn3Ys-59" target="O6LtHVy_WTdG4FfeH-hw-4">
          <mxGeometry width="50" height="50" relative="1" as="geometry">
            <mxPoint x="1180" y="240" as="sourcePoint" />
            <mxPoint x="1230" y="190" as="targetPoint" />
          </mxGeometry>
        </mxCell>
        <mxCell id="O6LtHVy_WTdG4FfeH-hw-9" value="employee_id" style="ellipse;fillColor=#fff2cc;strokeColor=#d6b656;fontSize=13;" vertex="1" parent="1">
          <mxGeometry x="1500" y="1780" width="120" height="60" as="geometry" />
        </mxCell>
        <mxCell id="O6LtHVy_WTdG4FfeH-hw-11" value="" style="endArrow=none;rounded=0;fontSize=13;" edge="1" parent="1" source="TCsy2gral7Sv24ihn3Ys-2" target="O6LtHVy_WTdG4FfeH-hw-9">
          <mxGeometry width="50" height="50" relative="1" as="geometry">
            <mxPoint x="1420" y="1840" as="sourcePoint" />
            <mxPoint x="1470" y="1790" as="targetPoint" />
          </mxGeometry>
        </mxCell>
        <mxCell id="O6LtHVy_WTdG4FfeH-hw-12" value="employee_id" style="ellipse;fillColor=#fff2cc;strokeColor=#d6b656;fontSize=13;" vertex="1" parent="1">
          <mxGeometry x="1394" y="2800" width="120" height="60" as="geometry" />
        </mxCell>
        <mxCell id="O6LtHVy_WTdG4FfeH-hw-13" value="" style="endArrow=none;rounded=0;fontSize=13;" edge="1" parent="1" source="O6LtHVy_WTdG4FfeH-hw-12" target="TCsy2gral7Sv24ihn3Ys-66">
          <mxGeometry width="50" height="50" relative="1" as="geometry">
            <mxPoint x="1270" y="2910" as="sourcePoint" />
            <mxPoint x="1320" y="2860" as="targetPoint" />
          </mxGeometry>
        </mxCell>
        <mxCell id="O6LtHVy_WTdG4FfeH-hw-14" value="employee_id" style="ellipse;fillColor=#fff2cc;strokeColor=#d6b656;fontSize=13;" vertex="1" parent="1">
          <mxGeometry x="2740" y="2590" width="120" height="60" as="geometry" />
        </mxCell>
        <mxCell id="O6LtHVy_WTdG4FfeH-hw-15" value="" style="endArrow=none;rounded=0;fontSize=13;" edge="1" parent="1" source="TCsy2gral7Sv24ihn3Ys-81" target="O6LtHVy_WTdG4FfeH-hw-14">
          <mxGeometry width="50" height="50" relative="1" as="geometry">
            <mxPoint x="2860" y="2840" as="sourcePoint" />
            <mxPoint x="2910" y="2790" as="targetPoint" />
          </mxGeometry>
        </mxCell>
      </root>
    </mxGraphModel>
  </diagram>
</mxfile>
